<svg width="7" height="5" viewBox="0 0 7 5" fill="none" xmlns="http://www.w3.org/2000/svg">
<path d="M4.83101 0.323842C5.13449 -0.0306659 5.65435 -0.103952 6.04401 0.152842C6.22538 0.265301 6.34982 0.450141 6.38577 0.660498C6.42172 0.870855 6.36574 1.08653 6.23201 1.25284L3.54501 4.59984C3.4003 4.77307 3.19141 4.88007 2.96627 4.89629C2.74112 4.9125 2.51906 4.83655 2.35101 4.68584L0.254011 2.77084C0.0926239 2.63012 0 2.42646 0 2.21234C0 1.99822 0.0926239 1.79456 0.254011 1.65384C0.605155 1.34518 1.13087 1.34518 1.48201 1.65384L2.80001 2.85284L4.83101 0.323842Z" fill="#1DBF73"/>
</svg>
