<svg width="100" height="100" viewBox="0 0 60 60" fill="none" xmlns="http://www.w3.org/2000/svg">
<path d="M19 53C12.715 53 7.176 51.812 3.105 49.824C2.396 51.207 2 52.766 2 54.395V56C2 56.553 2.447 57 3 57H35C35.553 57 36 56.553 36 56V54.395C36 52.766 35.604 51.207 34.895 49.825C30.824 51.813 25.285 53 19 53V53Z" fill="#1DBF73"/>
<path d="M32.2641 47.601C31.2951 46.821 30.1741 46.207 28.9321 45.826L24.3711 44.423C23.5041 44.156 22.8051 43.512 22.4671 42.669L22.0261 41.565C21.2871 41.779 20.0001 42 18.9871 42C18.0001 42 16.9381 41.856 15.9681 41.58L15.5321 42.668C15.1941 43.511 14.4951 44.155 13.6281 44.422L9.06711 45.825C7.82511 46.207 6.70411 46.82 5.73511 47.6C9.05911 49.026 13.6331 50 19.0001 50C24.3671 50 28.9411 49.026 32.2641 47.601Z" fill="#1DBF73"/>
<path d="M56 3H34C32.896 3 32 3.896 32 5V21C32 22.104 32.896 23 34 23H38V26.465C38 27.313 38.688 28 39.535 28C39.838 28 40.135 27.91 40.387 27.742L47.5 23H56C57.104 23 58 22.104 58 21V5C58 3.896 57.104 3 56 3V3ZM38 15C36.896 15 36 14.104 36 13C36 11.896 36.896 11 38 11C39.104 11 40 11.896 40 13C40 14.104 39.104 15 38 15ZM45 15C43.896 15 43 14.104 43 13C43 11.896 43.896 11 45 11C46.104 11 47 11.896 47 13C47 14.104 46.104 15 45 15ZM52 15C50.896 15 50 14.104 50 13C50 11.896 50.896 11 52 11C53.104 11 54 11.896 54 13C54 14.104 53.104 15 52 15Z" fill="#1DBF73"/>
<path d="M11 32V24.413C11 23.574 11.69 22.997 12.418 23C12.717 23.001 13.022 23.101 13.287 23.321C15.598 25.234 19.698 27.678 25.783 27.97C26.467 28.004 27 28.581 27 29.267V31.726C27 35.988 23.785 39.707 19.533 39.983C14.873 40.284 11 36.595 11 32V32Z" fill="#1DBF73"/>
<path d="M3.00005 31C3.00005 35.72 1.89505 38.166 1.17605 39.26C1.06105 39.433 1.00405 39.625 1.00005 39.816C0.992049 40.15 1.14805 40.478 1.44605 40.683C2.73505 41.569 5.41005 43 9.23605 43C10.33 43 12.039 42.514 12.715 41.747C13.139 41.266 13.079 40.509 12.61 40.07C10.386 38.18 9.00005 34.898 9.00005 31.726V24.413C9.00005 23.076 9.75205 21.893 10.963 21.325C11.434 21.103 11.934 20.998 12.428 21C13.193 21.004 13.946 21.269 14.565 21.782C16.698 23.548 20.393 25.71 25.879 25.972C27.63 26.058 29 27.505 29 29.267V31.726C29 34.899 27.6131 38.18 25.3911 40.071C25.1271 40.315 24.993 40.66 25 41C25.005 41.269 25.098 41.534 25.285 41.747C25.96 42.514 27.67 43 28.764 43C32.59 43 35.2641 41.569 36.5531 40.684C36.8521 40.479 37.007 40.151 37 39.817C36.996 39.626 36.9381 39.433 36.8241 39.26C36.1041 38.166 35 35.72 35 31C35 29.191 34.832 27.536 34.545 26H34C31.243 26 29 23.757 29 21V16.141C26.33 14.057 22.912 13 19 13C9.61105 13 3.00005 19 3.00005 31Z" fill="#1DBF73"/>
</svg>
