<svg width="120" height="120" viewBox="0 0 188 188" fill="none" xmlns="http://www.w3.org/2000/svg">
<circle cx="94" cy="94" r="94" fill="#F1F1F1"/>
<path fill-rule="evenodd" clip-rule="evenodd" d="M114.151 125.165C114.517 125.282 114.899 125.342 115.283 125.342L154.504 125.339C157.42 125.339 159.785 121.88 159.785 117.612C159.785 113.344 157.42 109.885 154.504 109.885H149.978C147.062 109.885 144.698 106.424 144.698 102.157C144.698 97.89 147.062 94.43 149.978 94.43H164.317C167.233 94.43 169.597 90.971 169.597 86.703C169.597 82.435 167.233 78.975 164.317 78.975H147.722C150.638 78.975 153.002 75.516 153.002 71.248C153.002 66.98 150.638 63.521 147.722 63.521H99.446C102.362 63.521 104.726 60.06 104.726 55.793C104.726 51.526 102.362 48.066 99.446 48.066H56.446C53.53 48.066 51.165 51.527 51.165 55.795C51.165 60.063 53.53 63.523 56.446 63.523H26.278C23.362 63.523 20.997 66.982 20.997 71.25C20.997 75.518 23.362 78.977 26.278 78.977H45.131C48.047 78.977 50.411 82.438 50.411 86.705C50.411 90.972 48.047 94.432 45.131 94.432H14.959C12.043 94.432 9.67801 97.89 9.67801 102.159C9.67801 106.428 12.043 109.888 14.959 109.888H44.378C41.462 109.888 39.097 113.347 39.097 117.615C39.097 121.883 41.462 125.342 44.378 125.342H113.02C113.404 125.342 113.785 125.282 114.151 125.165ZM166.637 105.874C163.749 107.07 161.866 109.888 161.866 113.014V113.015C161.867 117.282 165.326 120.741 169.593 120.742C172.719 120.742 175.537 118.86 176.733 115.972C177.93 113.084 177.269 109.76 175.059 107.55C172.849 105.339 169.525 104.678 166.637 105.874Z" fill="white"/>
<path d="M57.398 50.274H131.363L124.739 60.21L133.571 66.834H55.19L65.126 60.21L57.398 50.274Z" fill="#F0F1F5"/>
<path d="M28.695 138.038H52.379" stroke="#1DBF73" stroke-width="2.5" stroke-linecap="round" stroke-linejoin="round"/>
<path d="M14.485 138.038H22.071" stroke="#1DBF73" stroke-width="2.5" stroke-linecap="round" stroke-linejoin="round"/>
<path d="M172.351 138.038H175.523" stroke="#1DBF73" stroke-width="2.5" stroke-linecap="round" stroke-linejoin="round"/>
<path d="M142.403 138.038H167.162" stroke="#1DBF73" stroke-width="2.5" stroke-linecap="round" stroke-linejoin="round"/>
<path d="M131.965 152.941H58.46C56.0382 152.923 54.0863 150.951 54.093 148.529V69.041C54.1062 67.2013 55.6063 65.7196 57.446 65.729H134.146C135.358 65.7383 136.333 66.7255 136.329 67.937V148.529C136.336 150.95 134.386 152.921 131.965 152.941Z" fill="white" stroke="#1DBF73" stroke-width="2.5" stroke-linecap="round"/>
<path d="M56.294 65.729V52.482C56.2326 51.3272 57.1165 50.3401 58.271 50.274L131.59 50.274C132.746 50.338 133.632 51.3257 133.571 52.482V65.729" stroke="#1DBF73" stroke-width="2.5"/>
<circle cx="76.718" cy="85.048" r="3.864" fill="white" stroke="#1DBF73" stroke-width="2.5"/>
<circle cx="113.148" cy="85.048" r="3.864" fill="white" stroke="#1DBF73" stroke-width="2.5"/>
<path d="M112.595 88.912C112.595 98.667 104.687 106.575 94.932 106.575C85.177 106.575 77.269 98.667 77.269 88.912" stroke="#1DBF73" stroke-width="2.5" stroke-linecap="round"/>
<path d="M57.465 51.374L65.311 59.119C65.5617 59.3627 65.6816 59.711 65.6341 60.0574C65.5865 60.4037 65.3771 60.7069 65.07 60.874L56.294 65.729" stroke="#1DBF73" stroke-width="2.5" stroke-linecap="round"/>
<path d="M132.587 51.454L125.078 59.112C124.834 59.3584 124.721 59.7052 124.772 60.0481C124.823 60.3909 125.033 60.6895 125.338 60.854L134.278 65.729" stroke="#1DBF73" stroke-width="2.5" stroke-linecap="round"/>
<path d="M124.678 23.8406C125.138 23.3252 125.092 22.535 124.577 22.0757C124.061 21.6165 123.271 21.6619 122.812 22.1774L124.678 23.8406ZM110.559 35.9274C110.099 36.4428 110.145 37.2329 110.66 37.6922C111.176 38.1515 111.966 38.106 112.425 37.5906L110.559 35.9274ZM67.1632 22.1773C66.7039 21.6619 65.9137 21.6165 65.3984 22.0758C64.883 22.5351 64.8375 23.3252 65.2968 23.8406L67.1632 22.1773ZM77.5508 37.5906C78.0101 38.106 78.8003 38.1515 79.3157 37.6922C79.8311 37.2329 79.8765 36.4427 79.4172 35.9273L77.5508 37.5906ZM122.812 22.1774L110.559 35.9274L112.425 37.5906L124.678 23.8406L122.812 22.1774ZM112.425 37.5906L124.678 23.8406L122.812 22.1774L110.559 35.9274L112.425 37.5906ZM65.2968 23.8406L77.5508 37.5906L79.4172 35.9273L67.1632 22.1773L65.2968 23.8406ZM79.4172 35.9273L67.1632 22.1773L65.2968 23.8406L77.5508 37.5906L79.4172 35.9273Z" fill="#1DBF73"/>
</svg>
