<svg width="50" height="50" viewBox="0 0 50 50" fill="none" xmlns="http://www.w3.org/2000/svg">
<circle opacity="0.1" cx="25" cy="25" r="25" fill="#FE2121"/>
<path fill-rule="evenodd" clip-rule="evenodd" d="M13.9138 29.6615C15.771 34.1455 20.1464 37.0692 24.9998 37.0694C28.184 37.0779 31.2394 35.8122 33.4848 33.5544C36.5575 30.5313 37.7727 26.0925 36.6684 21.9259C35.5641 17.7593 32.3098 14.5051 28.1432 13.4008C23.9766 12.2965 19.5378 13.5117 16.5148 16.5844C13.083 20.0164 12.0565 25.1776 13.9138 29.6615ZM20.2795 19.1232C20.359 19.0438 20.4671 18.9995 20.5795 19.0002C20.6922 18.9993 20.8007 19.0436 20.8805 19.1232L24.9355 23.1232L28.9905 19.1232C29.1568 18.959 29.4242 18.959 29.5905 19.1232L30.7455 20.2922C30.9081 20.4592 30.9081 20.7253 30.7455 20.8922L26.6795 24.9102L30.7295 28.9752C30.8085 29.055 30.8527 29.1629 30.8525 29.2752C30.854 29.3878 30.8096 29.4961 30.7295 29.5752L29.5745 30.7372C29.4953 30.8172 29.387 30.8616 29.2745 30.8602C29.1624 30.8592 29.055 30.8152 28.9745 30.7372L24.9295 26.6872L20.8865 30.7432C20.8076 30.8237 20.6991 30.8682 20.5865 30.8662C20.4743 30.8657 20.3667 30.8216 20.2865 30.7432L19.1295 29.5802C18.9653 29.4139 18.9653 29.1465 19.1295 28.9802L23.1885 24.9042L19.1225 20.8862C18.9594 20.7195 18.9594 20.453 19.1225 20.2862L20.2795 19.1232Z" fill="#FE2121"/>
</svg>
