<svg width="160" height="160" viewBox="0 0 226 226" fill="none" xmlns="http://www.w3.org/2000/svg">
<circle cx="113" cy="113" r="113" fill="#F6F7FF"/>
<path d="M97.3101 27.766C98.112 27.7719 98.8827 27.4554 99.449 26.8875C100.015 26.3195 100.329 25.5479 100.321 24.746C100.329 23.9441 100.015 23.1725 99.4487 22.6045C98.8826 22.0365 98.1121 21.7196 97.3101 21.725C96.5078 21.7191 95.7368 22.0357 95.1702 22.6038C94.6036 23.1718 94.289 23.9437 94.2971 24.746C94.339 26.3935 95.6627 27.7203 97.3101 27.766Z" fill="#1DBF73"/>
<path d="M148.338 33.275C149.602 33.2488 150.618 32.2276 150.638 30.964C150.617 29.7012 149.601 28.6812 148.338 28.655C147.075 28.6812 146.059 29.7012 146.038 30.964C146.058 32.2276 147.075 33.2488 148.338 33.275Z" fill="url(#paint0_linear_1_1278)"/>
<path d="M212.487 108.425C215.159 105.911 215.316 101.717 212.841 99.009C211.674 97.7263 210.041 96.9661 208.309 96.8991C206.576 96.8322 204.889 97.4641 203.627 98.653C200.957 101.168 200.799 105.361 203.273 108.069C205.783 110.57 209.792 110.725 212.487 108.425Z" fill="#EAEEF9"/>
<path d="M83.8421 79.466L81.7161 76.09" stroke="#BBC6D8" stroke-width="1.5" stroke-linecap="round" stroke-linejoin="round"/>
<path d="M71.7911 79.999L87.3841 103.45L100.852 106.826L85.7911 82.486" stroke="#BBC6D8" stroke-width="1.5" stroke-linecap="round" stroke-linejoin="round"/>
<path d="M64.3491 126.368H63.6401C63.4006 126.382 63.1665 126.293 62.9972 126.123C62.8279 125.953 62.7398 125.718 62.7551 125.479C62.7404 125.24 62.8288 125.006 62.998 124.836C63.1671 124.666 63.4009 124.577 63.6401 124.591H64.3491C64.5884 124.577 64.8222 124.666 64.9915 124.836C65.1609 125.006 65.2495 125.24 65.2351 125.479C65.2501 125.719 65.1617 125.953 64.9923 126.123C64.8229 126.293 64.5887 126.382 64.3491 126.368Z" fill="#2D5887"/>
<path d="M64.3491 130.278H63.6401C63.4007 130.292 63.1668 130.203 62.9976 130.033C62.8284 129.863 62.7401 129.628 62.7551 129.389C62.7401 129.15 62.8284 128.916 62.9976 128.746C63.1668 128.576 63.4008 128.487 63.6401 128.501H64.3491C64.5885 128.487 64.8225 128.576 64.9919 128.746C65.1613 128.915 65.2498 129.15 65.2351 129.389C65.2498 129.628 65.1613 129.863 64.9919 130.033C64.8226 130.203 64.5886 130.292 64.3491 130.278Z" fill="#2D5887"/>
<path d="M64.3491 134.186H63.6401C63.4007 134.2 63.1668 134.111 62.9976 133.941C62.8284 133.771 62.7401 133.536 62.7551 133.297C62.7404 133.058 62.8288 132.824 62.998 132.654C63.1671 132.484 63.4009 132.395 63.6401 132.409H64.3491C64.5884 132.395 64.8222 132.484 64.9915 132.654C65.1609 132.824 65.2495 133.058 65.2351 133.297C65.2498 133.536 65.1613 133.771 64.9919 133.941C64.8226 134.111 64.5886 134.2 64.3491 134.186Z" fill="#2D5887"/>
<path d="M64.3491 138.094H63.6401C63.4006 138.108 63.1665 138.019 62.9972 137.849C62.8279 137.679 62.7398 137.444 62.7551 137.205C62.7404 136.966 62.8288 136.732 62.998 136.562C63.1671 136.392 63.4009 136.303 63.6401 136.317H64.3491C64.5884 136.303 64.8222 136.392 64.9915 136.562C65.1609 136.732 65.2495 136.966 65.2351 137.205C65.2501 137.445 65.1617 137.679 64.9923 137.849C64.8229 138.019 64.5887 138.108 64.3491 138.094Z" fill="#2D5887"/>
<path d="M102.626 126.192H89.5111C89.2717 126.206 89.0378 126.117 88.8686 125.947C88.6994 125.777 88.6111 125.542 88.6261 125.303C88.6111 125.064 88.6994 124.83 88.8686 124.66C89.0378 124.49 89.2718 124.401 89.5111 124.415H102.626C102.866 124.401 103.1 124.489 103.27 124.659C103.439 124.829 103.528 125.063 103.513 125.303C103.528 125.543 103.439 125.777 103.27 125.947C103.1 126.117 102.866 126.206 102.626 126.192Z" fill="white"/>
<path d="M132.04 137.917H89.5111C89.2717 137.931 89.0378 137.842 88.8686 137.672C88.6994 137.502 88.6111 137.267 88.6261 137.028C88.6111 136.789 88.6994 136.555 88.8686 136.385C89.0378 136.215 89.2718 136.126 89.5111 136.14H132.04C132.28 136.126 132.514 136.215 132.683 136.385C132.852 136.554 132.941 136.789 132.926 137.028C132.941 137.267 132.852 137.502 132.683 137.672C132.514 137.842 132.28 137.931 132.04 137.917Z" fill="url(#paint1_linear_1_1278)"/>
<path d="M102.624 129.922H83.6641C83.4246 129.936 83.1905 129.847 83.0212 129.677C82.8519 129.507 82.7638 129.272 82.7791 129.033C82.7644 128.794 82.8528 128.56 83.022 128.39C83.1911 128.22 83.4249 128.131 83.6641 128.145H102.624C102.864 128.131 103.098 128.22 103.267 128.39C103.437 128.559 103.526 128.794 103.511 129.033C103.526 129.273 103.438 129.507 103.268 129.677C103.098 129.847 102.864 129.937 102.624 129.922Z" fill="#2D5887"/>
<path d="M117.687 134.008H83.8421C83.6023 134.023 83.3679 133.933 83.1982 133.763C83.0286 133.593 82.94 133.359 82.9551 133.119C82.9407 132.88 83.0294 132.645 83.199 132.476C83.3685 132.306 83.6026 132.217 83.8421 132.231H117.687C117.926 132.217 118.16 132.306 118.329 132.476C118.498 132.646 118.587 132.88 118.572 133.119C118.396 133.654 118.041 134.008 117.687 134.008Z" fill="#2D5887"/>
<path d="M132.215 134.008H120.343C120.104 134.022 119.869 133.933 119.7 133.763C119.531 133.593 119.443 133.358 119.458 133.119C119.443 132.88 119.532 132.646 119.701 132.476C119.87 132.306 120.104 132.217 120.343 132.231H132.215C132.455 132.217 132.689 132.306 132.858 132.476C133.028 132.645 133.117 132.88 133.102 133.119C133.117 133.359 133.029 133.593 132.859 133.763C132.689 133.933 132.455 134.023 132.215 134.008Z" fill="white"/>
<path d="M140.012 134.008H135.228C134.989 134.022 134.754 133.933 134.585 133.763C134.416 133.593 134.328 133.358 134.343 133.119C134.328 132.88 134.417 132.646 134.586 132.476C134.755 132.306 134.989 132.217 135.228 132.231H140.012C140.252 132.217 140.486 132.306 140.655 132.476C140.825 132.645 140.914 132.88 140.899 133.119C140.914 133.359 140.826 133.593 140.656 133.763C140.486 133.933 140.252 134.023 140.012 134.008Z" fill="url(#paint2_linear_1_1278)"/>
<path d="M9.7721 188.55H217.45" stroke="#D6DEE8" stroke-width="2" stroke-linecap="round" stroke-linejoin="round"/>
<path d="M148.341 124.237V187.484H58.5001C56.8504 187.492 55.2663 186.839 54.1014 185.671C52.9365 184.503 52.2878 182.917 52.3001 181.267V124.237H148.341Z" fill="white"/>
<path d="M182.365 124.237V181.267C182.377 182.917 181.729 184.503 180.564 185.671C179.399 186.839 177.815 187.492 176.165 187.484H148.165V124.237H182.365Z" fill="#DAE1ED"/>
<path opacity="0.3" d="M182.365 124.237V181.267C182.377 182.917 181.729 184.503 180.564 185.671C179.399 186.839 177.815 187.492 176.165 187.484H148.165V124.237H182.365Z" fill="url(#paint3_linear_1_1278)"/>
<path d="M87.3851 124.769L106.169 95.277H202.569L183.25 124.769H87.3851Z" fill="#C5CDDB"/>
<path opacity="0.2" d="M87.3851 124.769L106.169 95.277H202.569L183.25 124.769H87.3851Z" fill="url(#paint4_linear_1_1278)"/>
<path d="M197.072 84.618C195.436 86.247 193.175 87.0889 190.872 86.927H190.518C189.057 86.92 187.653 87.4958 186.618 88.527C185.566 89.5397 185.042 90.9831 185.201 92.435V92.613C185.376 94.9204 184.536 97.1893 182.901 98.8272C181.267 100.465 179 101.31 176.692 101.14H176.514C175.089 101.151 173.711 101.653 172.614 102.563C171.584 103.602 171.008 105.008 171.014 106.471C171.178 108.778 170.34 111.045 168.714 112.69C167.078 114.319 164.817 115.161 162.514 114.999H161.809C160.975 114.95 160.339 114.235 160.387 113.401C160.436 112.567 161.151 111.93 161.985 111.979H162.692C164.195 112.138 165.691 111.616 166.769 110.556C167.798 109.516 168.371 108.11 168.363 106.648C168.189 104.341 169.028 102.073 170.661 100.435C172.295 98.7971 174.561 97.9519 176.868 98.12H177.046C178.471 98.1102 179.849 97.6082 180.946 96.699C181.977 95.6593 182.552 94.2529 182.546 92.789V92.613C182.372 90.3063 183.211 88.038 184.844 86.4001C186.478 84.7621 188.744 83.9169 191.051 84.085H191.405C193.055 84.1598 194.638 83.4313 195.655 82.13C195.867 81.8155 196.209 81.613 196.586 81.5785C196.964 81.544 197.337 81.6811 197.602 81.952C197.917 82.1654 198.119 82.5087 198.154 82.8874C198.188 83.2661 198.051 83.6403 197.78 83.907C197.426 84.263 197.248 84.44 197.072 84.618Z" fill="#DAE1ED"/>
<path opacity="0.3" d="M182.364 124.237V158.526H157.555C155.334 158.535 153.481 156.832 153.303 154.618L148.341 124.059L182.364 124.237Z" fill="url(#paint5_linear_1_1278)"/>
<path d="M182.365 124.237H148.165L165.53 151.064C166.682 152.785 168.595 153.844 170.665 153.905H197.248C198.089 153.899 198.861 153.439 199.266 152.702C199.671 151.964 199.645 151.066 199.198 150.353L182.365 124.237Z" fill="#DAE1ED"/>
<path d="M148.166 124.769L129.382 95.277H32.8081L52.3011 124.769H148.166Z" fill="#DAE1ED"/>
<path d="M100.674 160.481H62.7601C62.335 160.483 61.9266 160.316 61.6261 160.015C61.3255 159.714 61.1577 159.306 61.1601 158.881C61.158 158.456 61.3258 158.048 61.6264 157.747C61.9269 157.447 62.3351 157.279 62.7601 157.281H100.674C101.099 157.279 101.507 157.447 101.808 157.747C102.108 158.048 102.276 158.456 102.274 158.881C102.093 159.768 101.56 160.481 100.674 160.481Z" fill="#DAE1ED"/>
<path d="M100.674 168.299H62.7601C62.3349 168.302 61.9264 168.134 61.6258 167.833C61.3251 167.533 61.1574 167.124 61.1601 166.699C61.1574 166.274 61.3251 165.865 61.6258 165.565C61.9264 165.264 62.3349 165.096 62.7601 165.099H100.674C101.099 165.096 101.508 165.264 101.808 165.565C102.109 165.865 102.277 166.274 102.274 166.699C102.093 167.586 101.56 168.299 100.674 168.299Z" fill="#DAE1ED"/>
<path d="M80.2971 175.938H62.7601C62.3349 175.941 61.9264 175.773 61.6258 175.472C61.3251 175.172 61.1574 174.763 61.1601 174.338C61.1574 173.913 61.3251 173.504 61.6258 173.204C61.9264 172.903 62.3349 172.735 62.7601 172.738H80.2971C80.7223 172.735 81.1308 172.903 81.4314 173.204C81.7321 173.504 81.8998 173.913 81.8971 174.338C81.7823 175.169 81.1286 175.823 80.2971 175.938Z" fill="#DAE1ED"/>
<path d="M192.287 27.766L199.552 29.366C202.104 29.9691 204.094 31.9648 204.69 34.518L207.881 48.375C208.409 49.7374 208.059 51.284 206.994 52.285L189.629 69.694" fill="white"/>
<path d="M185.908 73.248L206.818 52.284C207.883 51.2837 208.233 49.7373 207.703 48.376L204.514 34.518C203.918 31.9649 201.928 29.9693 199.376 29.366L185.554 26.168C184.195 25.6376 182.65 25.9894 181.654 27.056L154.9 54.239C153.837 55.3248 153.837 57.0612 154.9 58.147L168.719 72.004L169.073 72.36C173.877 76.7785 181.194 77.005 186.262 72.892" fill="url(#paint6_linear_1_1278)"/>
<path d="M198.248 41.698C199.417 40.5319 199.768 38.7763 199.137 37.2505C198.506 35.7247 197.018 34.7295 195.367 34.7295C193.715 34.7295 192.227 35.7247 191.596 37.2505C190.965 38.7763 191.316 40.5319 192.485 41.698C194.08 43.2801 196.653 43.2801 198.248 41.698Z" fill="white"/>
<path d="M209.828 39.138C208.88 40.1041 207.807 40.9404 206.639 41.625C206.463 41.625 206.463 41.801 206.285 41.801L205.576 38.959C206.327 38.4194 207.038 37.8255 207.702 37.182C209.368 35.5494 210.484 33.4376 210.893 31.141C211.282 29.4344 210.819 27.6453 209.652 26.341C207.172 23.859 202.387 24.747 198.843 28.299C198.489 28.655 198.312 28.833 197.956 29.187C196.746 30.6921 195.898 32.4546 195.476 34.339V34.695C195.286 36.2818 195.732 37.8794 196.717 39.138C197.052 39.5299 197.477 39.8343 197.956 40.025C198.134 40.203 198.312 40.203 198.488 40.381L198.666 40.559C198.475 41.039 198.171 41.4656 197.779 41.802C197.397 42.1401 196.981 42.4377 196.538 42.69C195.79 42.2781 195.079 41.802 194.413 41.267C192.998 39.7912 192.233 37.8107 192.287 35.767C192.258 35.2276 192.318 34.6872 192.463 34.167C192.827 32.2707 193.548 30.4607 194.587 28.833C195.126 28.0794 195.72 27.3664 196.363 26.7C200.969 22.082 207.526 21.193 211.069 24.747C215.323 27.767 214.436 34.518 209.828 39.138Z" fill="url(#paint7_linear_1_1278)"/>
<path d="M186.616 72.714C186.084 73.07 185.729 73.426 185.199 73.78C180.699 76.6577 174.919 76.5878 170.49 73.602C169.96 73.248 169.605 72.892 169.073 72.537H169.251C171.86 72.5439 174.425 71.87 176.693 70.582C177.715 69.8316 179.123 69.9061 180.06 70.76C182.022 72.0068 184.292 72.6833 186.616 72.714Z" fill="url(#paint8_linear_1_1278)"/>
<path d="M86.8451 41.979C85.2423 39.8434 84.542 37.1638 84.8951 34.517C85.4271 30.609 85.2491 30.431 81.5281 28.832C79.0932 27.7196 77.1436 25.7629 76.0401 23.324C74.4401 19.772 74.0901 19.594 70.3691 19.948C67.7836 20.3017 65.1647 19.5976 63.1051 17.995C59.7381 15.508 59.7381 15.508 56.1931 17.995C54.1335 19.5976 51.5146 20.3017 48.9291 19.948C45.0291 19.416 44.8531 19.594 43.0821 23.148C41.9663 25.6845 39.9414 27.7115 37.4061 28.83C33.8611 30.43 33.6851 30.607 34.2151 34.515C34.568 37.1615 33.8686 39.8407 32.2671 41.977C29.9671 45.353 29.9671 45.353 32.2671 48.728C33.868 50.8646 34.5673 53.5436 34.2151 56.19C33.6841 60.098 33.8611 60.276 37.4061 61.875C39.9406 62.9955 41.9638 65.0243 43.0771 67.562C44.6711 71.114 44.8491 71.292 48.7461 70.762C51.3322 70.4089 53.9515 71.1129 56.0121 72.715C59.3791 75.202 59.5551 75.202 62.9221 72.715C63.5328 72.2924 64.1864 71.9354 64.8721 71.65C65.5801 71.2538 66.3639 71.0118 67.1721 70.94C68.1685 70.7616 69.1887 70.7616 70.1851 70.94C70.7225 70.9112 71.261 70.9706 71.7791 71.116C73.7291 71.65 74.7921 70.584 75.5001 68.985C75.6281 68.5174 75.872 68.0895 76.2091 67.741C77.208 65.2275 79.1959 63.2349 81.7071 62.23C85.2501 60.63 85.4281 60.453 85.0721 56.545C84.8656 55.4801 84.9267 54.3805 85.2501 53.345C85.4041 52.4947 85.6416 51.6617 85.9591 50.858C86.3131 50.146 86.6681 49.614 87.0221 48.903C89.1491 45.355 89.1491 45.177 86.8451 41.979Z" fill="#1DBF73"/>
<path d="M47.6921 41.8C45.5666 39.6286 45.5666 36.1564 47.6921 33.985C49.854 31.8505 53.3302 31.8505 55.4921 33.985C57.6192 36.1558 57.6192 39.6292 55.4921 41.8C54.4763 42.86 53.0597 43.4412 51.5921 43.4C50.1309 43.4072 48.7272 42.8314 47.6921 41.8Z" fill="white"/>
<path d="M63.6401 57.436C62.6122 56.3955 62.0393 54.9896 62.0471 53.527C62.04 52.0652 62.6129 50.6601 63.6401 49.62C65.7951 47.4802 69.2755 47.4884 71.4204 49.6384C73.5653 51.7883 73.5653 55.2687 71.4204 57.4187C69.2755 59.5686 65.7951 59.5768 63.6401 57.437V57.436Z" fill="white"/>
<path d="M70.3741 35.049C69.5624 34.339 68.3508 34.339 67.5391 35.049L49.4641 52.994C48.7569 53.8097 48.7569 55.0213 49.4641 55.837C49.8499 56.1922 50.3589 56.3831 50.8831 56.369C51.4066 56.3827 51.9149 56.1918 52.3001 55.837L70.3741 38.071C71.083 37.1884 71.083 35.9316 70.3741 35.049Z" fill="white"/>
<path d="M17.0381 55.125L8.0001 46.065" stroke="#BBC6D8" stroke-width="1.5" stroke-linecap="round" stroke-linejoin="round"/>
<path d="M40.2501 78.401L21.6441 59.746" stroke="#BBC6D8" stroke-width="1.5" stroke-linecap="round" stroke-linejoin="round"/>
<path d="M143.203 58.857L150.467 48.198" stroke="#BBC6D8" stroke-width="1.5" stroke-linecap="round" stroke-linejoin="round"/>
<path d="M148.165 83.019L155.253 72.538" stroke="#BBC6D8" stroke-width="1.5" stroke-linecap="round" stroke-linejoin="round"/>
<path d="M152.771 92.79L159.859 82.309" stroke="#BBC6D8" stroke-width="1.5" stroke-linecap="round" stroke-linejoin="round"/>
<path d="M124.775 86.041L139.482 64.188" stroke="#BBC6D8" stroke-width="1.5" stroke-linecap="round" stroke-linejoin="round"/>
<path d="M105.815 32.741L105.637 19.949" stroke="#BBC6D8" stroke-width="1.5" stroke-linecap="round" stroke-linejoin="round"/>
<path d="M106.345 65.609L105.992 39.314" stroke="#BBC6D8" stroke-width="1.5" stroke-linecap="round" stroke-linejoin="round"/>
<path d="M128.14 56.726L133.635 30.964" stroke="#BBC6D8" stroke-width="1.5" stroke-linecap="round" stroke-linejoin="round"/>
<path d="M125.66 68.628L127.077 61.344" stroke="#BBC6D8" stroke-width="1.5" stroke-linecap="round" stroke-linejoin="round"/>
<path d="M43.2621 91.19L17.7461 65.608" stroke="#BBC6D8" stroke-width="1.5" stroke-linecap="round" stroke-linejoin="round"/>
<path d="M105.636 84.44C106.71 84.4297 107.577 83.5608 107.586 82.487C107.578 81.4126 106.71 80.5429 105.636 80.532C104.562 80.5429 103.694 81.4126 103.686 82.487C103.628 83.0202 103.814 83.551 104.193 83.9305C104.572 84.31 105.103 84.4974 105.636 84.44Z" fill="url(#paint9_linear_1_1278)"/>
<path d="M16.5051 89.592C17.1686 89.6073 17.8094 89.3499 18.2781 88.88C18.7467 88.41 19.0022 87.7685 18.9851 87.105C19.002 86.4416 18.7463 85.8003 18.2777 85.3304C17.8092 84.8605 17.1685 84.603 16.5051 84.618C15.8417 84.603 15.201 84.8605 14.7325 85.3304C14.2639 85.8003 14.0082 86.4416 14.0251 87.105C14.008 87.7685 14.2635 88.41 14.7321 88.88C15.2008 89.3499 15.8416 89.6073 16.5051 89.592Z" fill="#FFBC00"/>
<path d="M141.785 87.461C142.955 87.4437 143.898 86.4977 143.911 85.328C143.934 84.757 143.718 84.2022 143.314 83.7977C142.91 83.3931 142.356 83.1753 141.785 83.197C140.616 83.2143 139.674 84.1592 139.66 85.328C139.635 85.8996 139.851 86.4556 140.254 86.861C140.658 87.2663 141.213 87.4839 141.785 87.461Z" fill="#1DBF73"/>
<path d="M204.514 75.201C205.777 75.1754 206.793 74.1551 206.814 72.892C206.793 71.6292 205.777 70.6092 204.514 70.583C203.251 70.6092 202.235 71.6292 202.214 72.892C202.163 73.5172 202.388 74.1334 202.831 74.5778C203.273 75.0222 203.889 75.25 204.514 75.201Z" fill="url(#paint10_linear_1_1278)"/>
<defs>
<linearGradient id="paint0_linear_1_1278" x1="146.102" y1="33.2034" x2="150.431" y2="33.2034" gradientUnits="userSpaceOnUse">
<stop stop-color="#FF66A9"/>
<stop offset="1" stop-color="#F53689"/>
</linearGradient>
<linearGradient id="paint1_linear_1_1278" x1="88.8017" y1="137.951" x2="132.972" y2="137.951" gradientUnits="userSpaceOnUse">
<stop stop-color="#FF66A9"/>
<stop offset="1" stop-color="#F53689"/>
</linearGradient>
<linearGradient id="paint2_linear_1_1278" x1="134.387" y1="133.95" x2="140.901" y2="133.95" gradientUnits="userSpaceOnUse">
<stop stop-color="#83A6FF"/>
<stop offset="1" stop-color="#5A78FF"/>
</linearGradient>
<linearGradient id="paint3_linear_1_1278" x1="127.869" y1="244.525" x2="242.459" y2="262.116" gradientUnits="userSpaceOnUse">
<stop offset="0.003" stop-color="#606673" stop-opacity="0.01"/>
<stop offset="1" stop-color="#373C47"/>
</linearGradient>
<linearGradient id="paint4_linear_1_1278" x1="-731.647" y1="-170.145" x2="-733.21" y2="286.092" gradientUnits="userSpaceOnUse">
<stop offset="0.003" stop-color="#606673" stop-opacity="0.01"/>
<stop offset="1" stop-color="#373C47"/>
</linearGradient>
<linearGradient id="paint5_linear_1_1278" x1="180.85" y1="159.25" x2="180.85" y2="127.85" gradientUnits="userSpaceOnUse">
<stop offset="0.003" stop-color="#606673" stop-opacity="0.01"/>
<stop offset="1" stop-color="#373C47"/>
</linearGradient>
<linearGradient id="paint6_linear_1_1278" x1="154.103" y1="75.9564" x2="208.001" y2="75.9564" gradientUnits="userSpaceOnUse">
<stop stop-color="#6C4DDA" stop-opacity="0.6"/>
<stop offset="1" stop-color="#522ED2"/>
</linearGradient>
<linearGradient id="paint7_linear_1_1278" x1="192.28" y1="22.5668" x2="192.28" y2="42.69" gradientUnits="userSpaceOnUse">
<stop stop-color="#6C4DDA" stop-opacity="0.6"/>
<stop offset="1" stop-color="#522ED2"/>
</linearGradient>
<linearGradient id="paint8_linear_1_1278" x1="169.073" y1="70.0657" x2="169.073" y2="75.8908" gradientUnits="userSpaceOnUse">
<stop stop-color="#6C4DDA" stop-opacity="0.6"/>
<stop offset="1" stop-color="#522ED2"/>
</linearGradient>
<linearGradient id="paint9_linear_1_1278" x1="103.57" y1="84.458" x2="107.449" y2="84.458" gradientUnits="userSpaceOnUse">
<stop stop-color="#FF66A9"/>
<stop offset="1" stop-color="#F53689"/>
</linearGradient>
<linearGradient id="paint10_linear_1_1278" x1="202.087" y1="75.0573" x2="206.699" y2="75.0573" gradientUnits="userSpaceOnUse">
<stop stop-color="#FF66A9"/>
<stop offset="1" stop-color="#F53689"/>
</linearGradient>
</defs>
</svg>
