<svg width="24" height="24" viewBox="0 0 24 24" fill="none" xmlns="http://www.w3.org/2000/svg">
<path fill-rule="evenodd" clip-rule="evenodd" d="M14.7588 2.47603C15.5173 2.16176 16.3303 2 17.1513 2C17.9723 2 18.7853 2.16176 19.5437 2.47603C20.3022 2.79031 20.9913 3.25094 21.5717 3.83162C22.1523 4.41197 22.6129 5.10101 22.9271 5.85938C23.2414 6.61785 23.4031 7.43082 23.4031 8.25183C23.4031 9.07283 23.2414 9.8858 22.9271 10.6443C22.6128 11.4027 22.1522 12.0918 21.5716 12.6722C21.5716 12.6722 21.5717 12.6721 21.5716 12.6722L12.7316 21.5122C12.4387 21.805 11.9639 21.805 11.671 21.5122L2.83096 12.6722C1.65862 11.4998 1 9.90977 1 8.25183C1 6.59388 1.65862 5.00384 2.83096 3.8315C4.00331 2.65915 5.59335 2.00053 7.25129 2.00053C8.90924 2.00053 10.4993 2.65915 11.6716 3.8315L12.2013 4.36117L12.7308 3.83162C13.3112 3.25094 14.0004 2.79031 14.7588 2.47603ZM17.1513 3.5C16.5273 3.5 15.9095 3.62294 15.333 3.86179C14.7566 4.10063 14.2329 4.45072 13.7917 4.89203L12.7316 5.95216C12.4387 6.24505 11.9639 6.24505 11.671 5.95216L10.611 4.89216C9.71992 4.00112 8.51141 3.50053 7.25129 3.50053C5.99117 3.50053 4.78266 4.00112 3.89162 4.89216C3.00058 5.7832 2.5 6.9917 2.5 8.25183C2.5 9.51195 3.00058 10.7205 3.89162 11.6115L12.2013 19.9212L20.511 11.6115C20.9523 11.1704 21.3025 10.6465 21.5413 10.0701C21.7802 9.49364 21.9031 8.87579 21.9031 8.25183C21.9031 7.62786 21.7802 7.01001 21.5413 6.43356C21.3025 5.85712 20.9524 5.33339 20.5111 4.89228C20.07 4.45097 19.546 4.10063 18.9696 3.86179C18.3931 3.62294 17.7753 3.5 17.1513 3.5Z" fill="currentColor"/>
</svg>
