<svg width="21" height="21" viewBox="0 0 21 21" fill="none" xmlns="http://www.w3.org/2000/svg">
<path d="M2.5 7.51562C2.48826 6.44697 2.90828 5.4187 3.66406 4.66309C4.41985 3.90756 5.448 3.488 6.5166 3.5H6.51855C7.79709 3.50992 9.00946 4.07214 9.84375 5.04102L10.2227 5.48047L10.6016 5.04102C11.4358 4.07219 12.6473 3.50998 13.9258 3.5H13.9277C14.9962 3.48823 16.0247 3.90752 16.7803 4.66309C17.5359 5.41867 17.9551 6.44713 17.9434 7.51562V7.52148C17.9433 8.90683 17.3223 10.207 16.1279 11.668C15.228 12.7688 14.0324 13.9257 12.5947 15.25L11.0781 16.6338L10.2217 17.4102L9.36523 16.6338C7.23832 14.7033 5.51361 13.136 4.31445 11.6689C3.12096 10.2088 2.50006 8.90912 2.5 7.52148V7.51562Z" fill="#FE2121" stroke="black"/>
</svg>
