<svg width="18" height="20" viewBox="0 0 18 20" fill="none" xmlns="http://www.w3.org/2000/svg">
<path fill-rule="evenodd" clip-rule="evenodd" d="M14.906 8.3345H15.798C16.2724 8.33344 16.7277 8.52114 17.0635 8.85619C17.3993 9.19125 17.588 9.64613 17.588 10.1205V17.2645C17.588 18.2509 16.7884 19.0505 15.802 19.0505H2.70202C1.71564 19.0505 0.916016 18.2509 0.916016 17.2645V10.1205C0.916016 9.13412 1.71564 8.3345 2.70202 8.3345H3.59502V5.6555C3.59502 2.53205 6.12707 0 9.25052 0C12.374 0 14.906 2.53205 14.906 5.6555V8.3345ZM6.57102 8.3345H11.929V5.6555C11.929 4.17593 10.7296 2.9765 9.25002 2.9765C7.77044 2.9765 6.57102 4.17593 6.57102 5.6555V8.3345Z" fill="#1DBF73"/>
</svg>
