<svg width="50" height="50" viewBox="0 0 50 50" fill="none" xmlns="http://www.w3.org/2000/svg">
<circle opacity="0.1" cx="25" cy="25" r="25" fill="url(#paint0_linear_1_1414)"/>
<path fill-rule="evenodd" clip-rule="evenodd" d="M13.9139 29.5921C15.7712 34.0761 20.1466 36.9998 25 37C28.1842 37.0085 31.2395 35.7428 33.485 33.485C36.5577 30.462 37.7729 26.0232 36.6686 21.8566C35.5642 17.6899 32.31 14.4357 28.1434 13.3314C23.9768 12.2271 19.538 13.4423 16.515 16.515C13.0832 19.947 12.0567 25.1082 13.9139 29.5921ZM18.281 23.904C18.4222 23.7649 18.6127 23.6872 18.811 23.688C19.0086 23.6864 19.199 23.7625 19.341 23.9L22.625 27.134L29.659 20.216C29.9541 19.9283 30.4248 19.9283 30.72 20.216L31.78 21.257C31.9202 21.3943 31.9991 21.5823 31.9991 21.7785C31.9991 21.9747 31.9202 22.1627 31.78 22.3L23.155 30.784C22.8598 31.0717 22.3891 31.0717 22.094 30.784L17.22 25.99C17.0793 25.853 16.9999 25.6649 16.9999 25.4685C16.9999 25.2721 17.0793 25.084 17.22 24.947L18.281 23.904Z" fill="#5634D2"/>
<defs>
<linearGradient id="paint0_linear_1_1414" x1="0" y1="0" x2="0" y2="50" gradientUnits="userSpaceOnUse">
<stop stop-color="#6C4DDA" stop-opacity="0.6"/>
<stop offset="1" stop-color="#522ED2"/>
</linearGradient>
</defs>
</svg>
