<svg width="187" height="146" viewBox="0 0 187 146" fill="none" xmlns="http://www.w3.org/2000/svg">
<path fill-rule="evenodd" clip-rule="evenodd" d="M73.914 0.872986L73.17 2.80199L73.178 2.80999C75.37 3.36999 75.567 6.31399 75.567 6.31399L77.114 5.23799C77.555 2.18499 73.914 0.872986 73.914 0.872986ZM23.187 31.192C23.1071 30.3237 23.1913 29.4482 23.435 28.611C23.6804 29.4479 23.7649 30.3236 23.684 31.192C23.765 32.0603 23.6805 32.9361 23.435 33.773C23.1944 32.9379 23.1127 32.0652 23.194 31.2L23.187 31.192ZM95.801 37.245L93.94 33.471C93.94 33.471 100.524 34.01 102.487 29.352L106.497 31.637C106.497 31.637 103.291 37.58 97.997 37.579C97.2547 37.5799 96.5164 37.4711 95.806 37.256L95.801 37.245ZM20.391 37.695C19.921 38.208 19.621 38.703 19.721 38.795L19.728 38.806C19.7406 38.8116 19.7546 38.813 19.768 38.81C20.1602 38.6385 20.5015 38.3688 20.759 38.027C21.227 37.514 21.527 37.019 21.427 36.927C21.327 36.835 20.861 37.182 20.391 37.695ZM23.613 37.124C23.3693 37.9612 23.2852 38.8367 23.365 39.705L23.371 39.711C23.2898 40.5769 23.3719 41.4504 23.613 42.286C23.8568 41.4488 23.9406 40.5732 23.86 39.705C23.9404 38.8368 23.8566 37.9612 23.613 37.124ZM161.738 45.37C161.657 44.5017 161.741 43.6259 161.986 42.789C162.23 43.6262 162.313 44.5018 162.233 45.37C162.313 46.2382 162.23 47.1138 161.986 47.951C161.742 47.116 161.658 46.2422 161.739 45.376L161.738 45.37ZM55.779 49.615C55.779 49.615 56.146 45.761 59.214 45.435L60.641 46.667C60.641 46.667 57.831 47.593 57.834 49.858L55.779 49.615ZM156.742 49.461C155.886 49.3806 155.022 49.4647 154.198 49.709V49.714C155.023 49.9576 155.886 50.0405 156.742 49.958C157.598 50.0389 158.461 49.9543 159.285 49.709C158.461 49.4648 157.598 49.3806 156.742 49.461ZM158.272 52.976C158.172 52.884 158.472 52.389 158.94 51.876C159.408 51.363 159.875 51.016 159.977 51.108C160.079 51.2 159.777 51.695 159.307 52.208C159.05 52.5496 158.709 52.8192 158.318 52.991C158.302 52.9936 158.286 52.99 158.272 52.981V52.976ZM161.914 53.886C161.834 53.0177 161.918 52.1421 162.162 51.305C162.406 52.1422 162.489 53.0178 162.409 53.886C162.489 54.7542 162.406 55.6298 162.162 56.467C161.918 55.6302 161.834 54.7549 161.914 53.887V53.886ZM3.875 52.488L1.294 54.5C0.742 59.288 7.084 60.448 7.084 60.448L8.229 57.315C4.424 56.97 3.875 52.488 3.875 52.488ZM181.765 71.178L182.511 69.248C182.511 69.248 186.152 70.558 185.711 73.612L184.163 74.688C184.163 74.688 183.958 71.736 181.763 71.178H181.765ZM143.218 87.6767L143.218 87.678L143.216 87.677L143.218 87.6767ZM143.218 87.6767L143.062 84.636C143.062 84.636 148.746 84.211 149.982 88.586L148.547 90.962C148.547 90.962 146.503 87.1105 143.218 87.6767ZM22.462 93.807L22.618 96.848C25.904 96.282 27.945 100.134 27.945 100.134L29.38 97.758C28.146 93.382 22.462 93.807 22.462 93.807ZM164.464 51.334C164.36 51.421 164.679 51.976 165.179 52.576V52.577C165.628 53.121 166.08 53.512 166.24 53.512C166.254 53.5127 166.267 53.5084 166.278 53.5C166.383 53.412 166.064 52.856 165.564 52.258C165.064 51.66 164.568 51.247 164.464 51.334ZM167.406 49.295C166.551 49.2148 165.688 49.2989 164.864 49.543V49.549C165.688 49.7909 166.551 49.873 167.406 49.791C168.262 49.8713 169.126 49.7871 169.951 49.543C169.126 49.2988 168.262 49.2146 167.406 49.295ZM158.416 46.159C158.328 46.263 158.657 46.684 159.152 47.094L159.153 47.1C159.43 47.3665 159.768 47.562 160.137 47.67C160.162 47.6725 160.187 47.6641 160.205 47.647C160.292 47.54 159.96 47.124 159.468 46.712C158.976 46.3 158.504 46.055 158.416 46.159ZM164.152 47.542C164.052 47.442 164.397 46.942 164.916 46.419C165.435 45.896 165.933 45.551 166.03 45.648C166.127 45.745 165.787 46.248 165.269 46.769C164.982 47.1144 164.615 47.3852 164.2 47.558C164.185 47.5595 164.17 47.556 164.158 47.548L164.152 47.542ZM26.63 38.395C26.13 37.795 25.812 37.24 25.915 37.153C26.018 37.066 26.51 37.479 27.015 38.077C27.52 38.675 27.832 39.231 27.727 39.319C27.7169 39.3274 27.7041 39.3317 27.691 39.331C27.537 39.337 27.09 38.945 26.636 38.4L26.63 38.395ZM141.24 35.699L142.447 37.145L142.453 37.152C142.524 37.156 142.591 37.1557 142.656 37.151C145.574 37.151 146.513 33.579 146.513 33.579L144.527 33.005C144.163 35.24 141.24 35.699 141.24 35.699ZM15.647 35.531C16.4714 35.2868 17.3349 35.2026 18.191 35.283C19.0467 35.2028 19.9099 35.287 20.734 35.531C19.9101 35.7761 19.0468 35.8606 18.191 35.78C17.3377 35.8625 16.4765 35.7807 15.654 35.539L15.647 35.531ZM28.857 35.117C28.0013 35.0367 27.1381 35.1209 26.314 35.365L26.321 35.373C27.1434 35.6134 28.0041 35.6948 28.857 35.613C29.7131 35.6932 30.5766 35.609 31.401 35.365C30.5766 35.1208 29.7131 35.0366 28.857 35.117ZM19.867 31.981C19.777 32.087 20.108 32.506 20.6 32.916L20.608 32.924C20.8842 33.1883 21.2195 33.383 21.586 33.492C21.6107 33.4949 21.6353 33.4864 21.653 33.469C21.741 33.362 21.409 32.944 20.918 32.534C20.427 32.124 19.957 31.875 19.867 31.981ZM25.607 33.364C25.507 33.264 25.851 32.764 26.37 32.241C26.889 31.718 27.387 31.373 27.485 31.47C27.583 31.567 27.24 32.07 26.723 32.591C26.4351 32.9359 26.0685 33.2066 25.654 33.38C25.6402 33.3817 25.6261 33.3789 25.614 33.372L25.607 33.364Z" fill="#1DBF73"/>
<path d="M73.17 2.80199L72.7035 2.62206L72.5864 2.9256L72.8165 3.15561L73.17 2.80199ZM73.914 0.872986L74.0835 0.402593L73.6235 0.236823L73.4475 0.693058L73.914 0.872986ZM73.178 2.80999L72.8245 3.16361L72.9215 3.2605L73.0542 3.29443L73.178 2.80999ZM75.567 6.31399L75.0681 6.34737L75.1271 7.229L75.8525 6.72446L75.567 6.31399ZM77.114 5.23799L77.3995 5.64846L77.5778 5.52444L77.6089 5.30947L77.114 5.23799ZM23.435 28.611L23.9148 28.4703L23.4333 26.8281L22.9549 28.4712L23.435 28.611ZM23.187 31.192L22.6891 31.2378L22.704 31.3992L22.8107 31.5212L23.187 31.192ZM23.684 31.192L23.1862 31.1456L23.1818 31.192L23.1862 31.2384L23.684 31.192ZM23.435 33.773L22.9545 33.9114L23.4306 35.5641L23.9148 33.9137L23.435 33.773ZM23.194 31.2L23.6918 31.2468L23.7119 31.0326L23.5703 30.8708L23.194 31.2ZM93.94 33.471L93.9808 32.9727L93.1013 32.9007L93.4916 33.6921L93.94 33.471ZM95.801 37.245L96.2562 37.0381L96.2529 37.0309L96.2494 37.0239L95.801 37.245ZM102.487 29.352L102.735 28.9176L102.245 28.6386L102.026 29.1578L102.487 29.352ZM106.497 31.637L106.937 31.8744L107.169 31.4444L106.745 31.2026L106.497 31.637ZM97.997 37.579L97.9971 37.079L97.9964 37.079L97.997 37.579ZM95.806 37.256L95.3508 37.4628L95.4444 37.6689L95.6611 37.7345L95.806 37.256ZM19.721 38.795L20.1428 38.5266L20.1077 38.4713L20.0595 38.427L19.721 38.795ZM20.391 37.695L20.7597 38.0327L20.7597 38.0327L20.391 37.695ZM19.728 38.806L19.3062 39.0744L19.387 39.2014L19.5245 39.2627L19.728 38.806ZM19.768 38.81L19.8771 39.2979L19.9241 39.2874L19.9683 39.2681L19.768 38.81ZM20.759 38.027L20.3896 37.69L20.3738 37.7074L20.3596 37.7261L20.759 38.027ZM21.427 36.927L21.7655 36.559L21.7655 36.559L21.427 36.927ZM23.365 39.705L22.8671 39.7507L22.8836 39.9308L23.0116 40.0587L23.365 39.705ZM23.613 37.124L24.0931 36.9843L23.6131 35.3346L23.1329 36.9843L23.613 37.124ZM23.371 39.711L23.8688 39.7576L23.8908 39.5235L23.7244 39.3573L23.371 39.711ZM23.613 42.286L23.1326 42.4246L23.6108 44.0821L24.0931 42.4258L23.613 42.286ZM23.86 39.705L23.3621 39.6589L23.3579 39.705L23.3621 39.7512L23.86 39.705ZM161.986 42.789L162.466 42.6493L161.988 41.0053L161.506 42.6484L161.986 42.789ZM161.738 45.37L161.24 45.4167L161.242 45.4342L161.245 45.4516L161.738 45.37ZM162.233 45.37L161.735 45.3239L161.731 45.37L161.735 45.4161L162.233 45.37ZM161.986 47.951L161.506 48.0913L161.987 49.7365L162.466 48.0907L161.986 47.951ZM161.739 45.376L162.237 45.4225L162.243 45.3582L162.232 45.2944L161.739 45.376ZM59.214 45.435L59.5407 45.0565L59.3767 44.9149L59.1612 44.9378L59.214 45.435ZM55.779 49.615L55.2813 49.5676L55.2349 50.0541L55.7203 50.1115L55.779 49.615ZM60.641 46.667L60.7975 47.1419L61.6361 46.8655L60.9677 46.2885L60.641 46.667ZM57.834 49.858L57.7753 50.3545L58.3347 50.4207L58.334 49.8573L57.834 49.858ZM154.198 49.709L154.056 49.2296L153.698 49.3356V49.709H154.198ZM156.742 49.461L156.695 49.9588L156.742 49.9632L156.789 49.9588L156.742 49.461ZM154.198 49.714H153.698V50.0876L154.056 50.1935L154.198 49.714ZM156.742 49.958L156.789 49.4602L156.742 49.4557L156.694 49.4603L156.742 49.958ZM159.285 49.709L159.428 50.1882L161.041 49.7078L159.427 49.2296L159.285 49.709ZM158.272 52.976H158.772V52.7566L158.611 52.608L158.272 52.976ZM159.977 51.108L160.312 50.7367L160.312 50.7367L159.977 51.108ZM159.307 52.208L158.938 51.8702L158.922 51.8881L158.907 51.9074L159.307 52.208ZM158.318 52.991L158.399 53.4844L158.461 53.4742L158.519 53.4489L158.318 52.991ZM158.272 52.981H157.772V53.2477L157.994 53.3963L158.272 52.981ZM162.162 51.305L162.642 51.1653L162.163 49.5174L161.682 51.1649L162.162 51.305ZM161.914 53.886H162.414V53.8629L162.412 53.8399L161.914 53.886ZM162.409 53.886L161.911 53.8399L161.907 53.886L161.911 53.932L162.409 53.886ZM162.162 56.467L161.682 56.607L162.163 58.2549L162.642 56.6066L162.162 56.467ZM161.914 53.887L162.412 53.933L162.414 53.91V53.887H161.914ZM1.294 54.5L0.986596 54.1057L0.821295 54.2345L0.79729 54.4427L1.294 54.5ZM3.875 52.488L4.37129 52.4272L4.26394 51.5508L3.5676 52.0936L3.875 52.488ZM7.084 60.448L6.99404 60.9398L7.40887 61.0157L7.55362 60.6196L7.084 60.448ZM8.229 57.315L8.69862 57.4866L8.92187 56.8758L8.27415 56.817L8.229 57.315ZM182.511 69.248L182.68 68.7775L182.221 68.6122L182.045 69.0677L182.511 69.248ZM181.765 71.178V71.678H182.108L182.231 71.3583L181.765 71.178ZM185.711 73.612L185.996 74.0225L186.175 73.8985L186.206 73.6834L185.711 73.612ZM184.163 74.688L183.664 74.7226L183.725 75.6012L184.448 75.0985L184.163 74.688ZM181.763 71.178V70.678L181.64 71.6626L181.763 71.178ZM143.218 87.678L142.994 88.1252L143.756 88.5062L143.717 87.6552L143.218 87.678ZM143.216 87.677L143.131 87.1843L141.632 87.444L142.992 88.1242L143.216 87.677ZM143.062 84.636L143.025 84.1374L142.538 84.1738L142.563 84.6616L143.062 84.636ZM149.982 88.586L150.41 88.8445L150.522 88.6588L150.463 88.4501L149.982 88.586ZM148.547 90.962L148.105 91.1964L148.519 91.9756L148.975 91.2205L148.547 90.962ZM22.618 96.848L22.1187 96.8736L22.1475 97.4364L22.7029 97.3407L22.618 96.848ZM22.462 93.807L22.4247 93.3084L21.9376 93.3448L21.9627 93.8326L22.462 93.807ZM27.945 100.134L27.5032 100.368L27.9166 101.148L28.373 100.392L27.945 100.134ZM29.38 97.758L29.808 98.0165L29.9201 97.8309L29.8612 97.6223L29.38 97.758ZM165.179 52.576H165.679V52.395L165.563 52.2559L165.179 52.576ZM165.179 52.577H164.679V52.7567L164.793 52.8953L165.179 52.577ZM166.24 53.512L166.266 53.0126L166.253 53.012H166.24V53.512ZM166.278 53.5L166.586 53.894L166.593 53.8887L166.599 53.8832L166.278 53.5ZM164.864 49.543L164.722 49.0636L164.364 49.1696V49.543H164.864ZM167.406 49.295L167.359 49.7928L167.406 49.7972L167.453 49.7928L167.406 49.295ZM164.864 49.549H164.364V49.9233L164.723 50.0287L164.864 49.549ZM167.406 49.791L167.453 49.2932L167.405 49.2887L167.358 49.2933L167.406 49.791ZM169.951 49.543L170.093 50.0224L171.712 49.5431L170.093 49.0636L169.951 49.543ZM159.152 47.094L159.645 47.0124L159.615 46.8281L159.471 46.7089L159.152 47.094ZM159.153 47.1L158.66 47.1816L158.687 47.3454L158.807 47.4605L159.153 47.1ZM160.137 47.67L159.997 48.1499L160.041 48.1629L160.088 48.1675L160.137 47.67ZM160.205 47.647L160.546 48.0123L160.571 47.989L160.593 47.9624L160.205 47.647ZM159.468 46.712L159.147 47.0953L159.147 47.0953L159.468 46.712ZM164.916 46.419L165.271 46.7712L165.271 46.7712L164.916 46.419ZM164.152 47.542L164.506 47.1885L164.506 47.1884L164.152 47.542ZM166.03 45.648L165.676 46.0015L165.676 46.0015L166.03 45.648ZM165.269 46.769L164.914 46.4165L164.899 46.4322L164.885 46.4492L165.269 46.769ZM164.2 47.558L164.252 48.0552L164.325 48.0476L164.392 48.0195L164.2 47.558ZM164.158 47.548L163.804 47.9014L163.842 47.9393L163.887 47.9683L164.158 47.548ZM26.63 38.395L26.2459 38.7151L26.275 38.75L26.3099 38.7791L26.63 38.395ZM27.015 38.077L27.397 37.7544L27.397 37.7544L27.015 38.077ZM27.727 39.319L28.0473 39.7029L28.0482 39.7022L27.727 39.319ZM27.691 39.331L27.7168 38.8317L27.6942 38.8305L27.6715 38.8314L27.691 39.331ZM26.636 38.4L27.0202 38.08L26.9911 38.045L26.9561 38.0159L26.636 38.4ZM142.447 37.145L142.063 37.4654L142.067 37.4703L142.447 37.145ZM141.24 35.699L141.162 35.205L140.291 35.3419L140.856 36.0194L141.24 35.699ZM142.453 37.152L142.073 37.4773L142.212 37.6391L142.425 37.6512L142.453 37.152ZM142.656 37.151V36.651H142.638L142.62 36.6523L142.656 37.151ZM146.513 33.579L146.997 33.7061L147.121 33.2341L146.652 33.0986L146.513 33.579ZM144.527 33.005L144.666 32.5246L144.124 32.3681L144.034 32.9246L144.527 33.005ZM18.191 35.283L18.1443 35.7808L18.191 35.7852L18.2377 35.7808L18.191 35.283ZM15.647 35.531L15.505 35.0516L14.757 35.2731L15.2707 35.8603L15.647 35.531ZM20.734 35.531L20.8766 36.0102L22.4912 35.5299L20.876 35.0516L20.734 35.531ZM18.191 35.78L18.2379 35.2822L18.1904 35.2777L18.1429 35.2823L18.191 35.78ZM15.654 35.539L15.2777 35.8683L15.3735 35.9777L15.513 36.0187L15.654 35.539ZM26.314 35.365L26.172 34.8856L25.424 35.1071L25.9377 35.6943L26.314 35.365ZM28.857 35.117L28.8103 35.6148L28.857 35.6192L28.9037 35.6148L28.857 35.117ZM26.321 35.373L25.9447 35.7023L26.0408 35.812L26.1807 35.8529L26.321 35.373ZM28.857 35.613L28.9036 35.1152L28.8564 35.1107L28.8092 35.1153L28.857 35.613ZM31.401 35.365L31.5429 35.8444L33.1622 35.3651L31.543 34.8856L31.401 35.365ZM20.6 32.916L20.9536 32.5624L20.9375 32.5464L20.9201 32.5319L20.6 32.916ZM19.867 31.981L20.2481 32.3046L20.2481 32.3046L19.867 31.981ZM20.608 32.924L20.2544 33.2776L20.2623 33.2852L20.608 32.924ZM21.586 33.492L21.4435 33.9713L21.4851 33.9836L21.5282 33.9886L21.586 33.492ZM21.653 33.469L22.0037 33.8254L22.0225 33.8069L22.0392 33.7866L21.653 33.469ZM20.918 32.534L20.5975 32.9178L20.5975 32.9178L20.918 32.534ZM26.37 32.241L26.0151 31.8888L26.0151 31.8888L26.37 32.241ZM25.607 33.364L25.9833 33.0347L25.9723 33.0222L25.9606 33.0104L25.607 33.364ZM27.485 31.47L27.8367 31.1146L27.8367 31.1146L27.485 31.47ZM26.723 32.591L26.3681 32.2388L26.3529 32.2541L26.3391 32.2706L26.723 32.591ZM25.654 33.38L25.7147 33.8763L25.7833 33.8679L25.847 33.8412L25.654 33.38ZM25.614 33.372L25.2377 33.7013L25.2935 33.7649L25.3671 33.8067L25.614 33.372ZM73.17 2.80199L73.6365 2.98191L74.3805 1.05291L73.914 0.872986L73.4475 0.693058L72.7035 2.62206L73.17 2.80199ZM73.178 2.80999L73.5315 2.45636L73.5235 2.44836L73.17 2.80199L72.8165 3.15561L72.8245 3.16361L73.178 2.80999ZM75.567 6.31399C76.0659 6.2806 76.0659 6.28041 76.0659 6.28021C76.0659 6.28013 76.0658 6.27992 76.0658 6.27975C76.0658 6.27943 76.0658 6.27905 76.0658 6.27864C76.0657 6.2778 76.0656 6.27678 76.0655 6.27559C76.0654 6.2732 76.0651 6.2701 76.0648 6.2663C76.0642 6.25872 76.0634 6.24836 76.0622 6.2354C76.0598 6.20948 76.0562 6.17309 76.0508 6.12756C76.04 6.03659 76.0222 5.90857 75.9936 5.75421C75.9367 5.44698 75.8358 5.02779 75.6586 4.58587C75.3087 3.71356 74.6213 2.66266 73.3018 2.32555L73.178 2.80999L73.0542 3.29443C73.9267 3.51731 74.4338 4.21841 74.7304 4.9581C74.8764 5.32218 74.9618 5.674 75.0103 5.93626C75.0345 6.06665 75.0492 6.17301 75.0577 6.24523C75.062 6.28129 75.0647 6.3087 75.0663 6.32618C75.0671 6.33491 75.0676 6.34116 75.0679 6.34474C75.0681 6.34654 75.0681 6.34767 75.0682 6.34811C75.0682 6.34834 75.0682 6.34839 75.0682 6.34826C75.0682 6.3482 75.0682 6.3481 75.0682 6.34795C75.0682 6.34787 75.0681 6.34773 75.0681 6.34769C75.0681 6.34754 75.0681 6.34737 75.567 6.31399ZM77.114 5.23799L76.8285 4.82751L75.2815 5.90351L75.567 6.31399L75.8525 6.72446L77.3995 5.64846L77.114 5.23799ZM73.914 0.872986C73.7445 1.34338 73.7443 1.34332 73.7442 1.34326C73.7441 1.34325 73.744 1.3432 73.7439 1.34318C73.7438 1.34313 73.7437 1.3431 73.7437 1.3431C73.7437 1.34308 73.7438 1.34314 73.7442 1.34328C73.745 1.34356 73.7466 1.34416 73.749 1.34507C73.7539 1.34689 73.762 1.34997 73.7732 1.35431C73.7955 1.36301 73.8299 1.37677 73.8744 1.39567C73.9637 1.43352 74.0934 1.49175 74.2487 1.57104C74.561 1.73043 74.9688 1.97065 75.3601 2.29538C76.1458 2.94743 76.8047 3.88159 76.6191 5.1665L77.114 5.23799L77.6089 5.30947C77.8643 3.54138 76.9232 2.29304 75.9987 1.52584C75.5349 1.14094 75.0599 0.862358 74.7033 0.680342C74.5242 0.588922 74.3728 0.520799 74.2647 0.474976C74.2106 0.452042 74.1672 0.434629 74.1364 0.422617C74.121 0.416609 74.1087 0.411947 74.0998 0.408616C74.0954 0.40695 74.0918 0.405617 74.089 0.404614C74.0877 0.404112 74.0865 0.403693 74.0856 0.403357C74.0851 0.403188 74.0847 0.40304 74.0844 0.402913C74.0842 0.40285 74.084 0.40277 74.0839 0.402738C74.0837 0.402663 74.0835 0.402593 73.914 0.872986ZM23.435 28.611L22.9549 28.4712C22.6937 29.3686 22.6035 30.3071 22.6891 31.2378L23.187 31.192L23.6849 31.1462C23.6108 30.3403 23.6888 29.5277 23.9151 28.7508L23.435 28.611ZM23.684 31.192L24.1818 31.2383C24.2686 30.3071 24.1779 29.3678 23.9148 28.4703L23.435 28.611L22.9552 28.7517C23.1828 29.5279 23.2611 30.3402 23.1862 31.1456L23.684 31.192ZM23.435 33.773L23.9148 33.9137C24.1781 33.0162 24.2687 32.0769 24.1818 31.1455L23.684 31.192L23.1862 31.2384C23.2613 32.0438 23.1829 32.8561 22.9552 33.6322L23.435 33.773ZM23.194 31.2L22.6962 31.1532C22.609 32.0807 22.6967 33.0162 22.9545 33.9114L23.435 33.773L23.9155 33.6346C23.6922 32.8596 23.6164 32.0497 23.6918 31.2468L23.194 31.2ZM23.187 31.192L22.8107 31.5212L22.8177 31.5292L23.194 31.2L23.5703 30.8708L23.5633 30.8628L23.187 31.192ZM93.94 33.471L93.4916 33.6921L95.3526 37.4661L95.801 37.245L96.2494 37.0239L94.3884 33.2499L93.94 33.471ZM102.487 29.352L102.026 29.1578C101.134 31.2738 99.1845 32.2405 97.3623 32.6717C96.4573 32.8858 95.6074 32.9613 94.9823 32.9827C94.6705 32.9934 94.4165 32.9906 94.2421 32.9853C94.1549 32.9826 94.0877 32.9793 94.0432 32.9767C94.021 32.9754 94.0044 32.9744 93.9939 32.9736C93.9887 32.9732 93.9849 32.973 93.9827 32.9728C93.9816 32.9727 93.9809 32.9727 93.9806 32.9726C93.9804 32.9726 93.9804 32.9726 93.9804 32.9726C93.9804 32.9726 93.9805 32.9726 93.9805 32.9726C93.9806 32.9726 93.9808 32.9727 93.94 33.471C93.8992 33.9693 93.8994 33.9693 93.8996 33.9694C93.8997 33.9694 93.9 33.9694 93.9002 33.9694C93.9007 33.9694 93.9012 33.9695 93.9018 33.9695C93.9031 33.9696 93.9048 33.9698 93.9069 33.9699C93.911 33.9702 93.9167 33.9707 93.924 33.9712C93.9385 33.9722 93.9592 33.9735 93.9856 33.9751C94.0385 33.9781 94.1147 33.9818 94.2114 33.9848C94.4047 33.9907 94.6805 33.9937 95.0166 33.9821C95.6873 33.9591 96.6061 33.8782 97.5925 33.6448C99.553 33.1809 101.877 32.0881 102.948 29.5462L102.487 29.352ZM106.497 31.637L106.745 31.2026L102.735 28.9176L102.487 29.352L102.239 29.7864L106.249 32.0714L106.497 31.637ZM97.997 37.579L97.9969 38.079C100.838 38.0795 103.084 36.487 104.588 34.9592C105.346 34.1905 105.93 33.4235 106.325 32.849C106.523 32.5612 106.675 32.3206 106.777 32.1506C106.828 32.0655 106.868 31.998 106.894 31.9511C106.908 31.9276 106.918 31.9092 106.925 31.8963C106.929 31.8898 106.931 31.8847 106.933 31.8811C106.934 31.8792 106.935 31.8778 106.936 31.8767C106.936 31.8761 106.936 31.8756 106.937 31.8752C106.937 31.8751 106.937 31.8748 106.937 31.8747C106.937 31.8745 106.937 31.8744 106.497 31.637C106.057 31.3996 106.057 31.3995 106.057 31.3994C106.057 31.3994 106.057 31.3993 106.057 31.3993C106.057 31.3993 106.057 31.3993 106.057 31.3995C106.057 31.3998 106.056 31.4005 106.056 31.4015C106.055 31.4036 106.053 31.407 106.05 31.4118C106.045 31.4214 106.037 31.4364 106.025 31.4564C106.002 31.4965 105.967 31.5567 105.921 31.6341C105.827 31.7891 105.687 32.0128 105.501 32.2822C105.13 32.8219 104.582 33.5406 103.876 34.2575C102.454 35.701 100.45 37.0795 97.9971 37.079L97.997 37.579ZM95.806 37.256L95.6611 37.7345C96.4187 37.9639 97.2061 38.08 97.9976 38.079L97.997 37.579L97.9964 37.079C97.3034 37.0798 96.6141 36.9782 95.9509 36.7774L95.806 37.256ZM95.801 37.245L95.3458 37.4518L95.3508 37.4628L95.806 37.256L96.2612 37.0491L96.2562 37.0381L95.801 37.245ZM19.721 38.795L20.0595 38.427C20.1846 38.5421 20.2007 38.6799 20.2017 38.7327C20.2027 38.7858 20.1915 38.8155 20.1939 38.8079C20.1978 38.7957 20.2173 38.7484 20.2695 38.6627C20.3694 38.4983 20.5401 38.2724 20.7597 38.0327L20.391 37.695L20.0223 37.3572C19.7719 37.6306 19.5576 37.9086 19.415 38.1431C19.3459 38.2567 19.2798 38.3824 19.2409 38.505C19.2219 38.5648 19.2 38.6522 19.2019 38.752C19.2038 38.8515 19.2324 39.0249 19.3825 39.163L19.721 38.795ZM19.728 38.806L20.1498 38.5376L20.1428 38.5266L19.721 38.795L19.2992 39.0634L19.3062 39.0744L19.728 38.806ZM19.768 38.81L19.6589 38.322C19.7503 38.3016 19.8459 38.3111 19.9315 38.3493L19.728 38.806L19.5245 39.2627C19.6352 39.312 19.7589 39.3244 19.8771 39.2979L19.768 38.81ZM20.759 38.027L20.3596 37.7261C20.1538 37.9993 19.8811 38.2148 19.5677 38.3519L19.768 38.81L19.9683 39.2681C20.4392 39.0622 20.8491 38.7384 21.1584 38.3278L20.759 38.027ZM21.427 36.927L21.0885 37.2949C20.9634 37.1799 20.9473 37.0421 20.9463 36.9893C20.9453 36.9363 20.9565 36.9067 20.954 36.9143C20.9502 36.9265 20.9306 36.9739 20.8786 37.0597C20.7787 37.2242 20.6084 37.4502 20.3896 37.69L20.759 38.027L21.1284 38.364C21.3776 38.0907 21.5913 37.8128 21.7334 37.5785C21.8024 37.4649 21.8683 37.3392 21.9072 37.2168C21.9262 37.157 21.948 37.0697 21.9461 36.9699C21.9442 36.8705 21.9156 36.6971 21.7655 36.559L21.427 36.927ZM20.391 37.695L20.7597 38.0327C20.9799 37.7924 21.1904 37.6009 21.3458 37.4856C21.4268 37.4254 21.4724 37.4014 21.4843 37.3963C21.4918 37.3932 21.4629 37.4073 21.4092 37.4112C21.3556 37.4151 21.2149 37.4113 21.0885 37.295L21.427 36.927L21.7655 36.559C21.6141 36.4197 21.437 36.4066 21.3369 36.4138C21.2368 36.4211 21.1514 36.4513 21.0938 36.4757C20.9755 36.5259 20.8564 36.6034 20.7497 36.6826C20.5296 36.8461 20.2721 37.0846 20.0223 37.3572L20.391 37.695ZM23.365 39.705L23.8629 39.6592C23.7888 38.8534 23.8669 38.0407 24.0931 37.2637L23.613 37.124L23.1329 36.9843C22.8717 37.8816 22.7816 38.8201 22.8671 39.7507L23.365 39.705ZM23.371 39.711L23.7244 39.3573L23.7184 39.3513L23.365 39.705L23.0116 40.0587L23.0176 40.0646L23.371 39.711ZM23.613 42.286L24.0934 42.1474C23.8697 41.3719 23.7935 40.5613 23.8688 39.7576L23.371 39.711L22.8732 39.6643C22.7862 40.5925 22.8742 41.5288 23.1326 42.4246L23.613 42.286ZM23.86 39.705L23.3621 39.7512C23.4369 40.5568 23.3591 41.3694 23.1329 42.1462L23.613 42.286L24.0931 42.4258C24.3544 41.5283 24.4442 40.5896 24.3579 39.6588L23.86 39.705ZM23.613 37.124L23.1329 37.2637C23.359 38.0406 23.4367 38.8532 23.3621 39.6589L23.86 39.705L24.3579 39.7511C24.444 38.8204 24.3542 37.8818 24.0931 36.9843L23.613 37.124ZM161.986 42.789L161.506 42.6484C161.243 43.546 161.153 44.4854 161.24 45.4167L161.738 45.37L162.236 45.3233C162.16 44.518 162.238 43.7058 162.466 42.9296L161.986 42.789ZM162.233 45.37L162.731 45.4161C162.817 44.4854 162.727 43.5468 162.466 42.6493L161.986 42.789L161.506 42.9287C161.732 43.7056 161.81 44.5182 161.735 45.3239L162.233 45.37ZM161.986 47.951L162.466 48.0907C162.727 47.1932 162.817 46.2546 162.731 45.3239L162.233 45.37L161.735 45.4161C161.81 46.2218 161.732 47.0344 161.506 47.8113L161.986 47.951ZM161.739 45.376L161.241 45.3294C161.154 46.2585 161.244 47.1957 161.506 48.0913L161.986 47.951L162.466 47.8106C162.239 47.0362 162.162 46.2259 162.237 45.4225L161.739 45.376ZM161.738 45.37L161.245 45.4516L161.246 45.4576L161.739 45.376L162.232 45.2944L162.231 45.2884L161.738 45.37ZM59.214 45.435L59.1612 44.9378C57.3841 45.1266 56.4079 46.3475 55.8941 47.4334C55.6363 47.9781 55.4843 48.5074 55.3964 48.8981C55.3523 49.0943 55.3239 49.2579 55.3064 49.374C55.2976 49.4321 55.2915 49.4785 55.2875 49.5114C55.2855 49.5278 55.2841 49.5408 55.283 49.5503C55.2825 49.555 55.2821 49.5588 55.2818 49.5617C55.2817 49.5632 55.2816 49.5644 55.2815 49.5654C55.2814 49.5658 55.2814 49.5663 55.2813 49.5667C55.2813 49.5668 55.2813 49.5671 55.2813 49.5672C55.2813 49.5674 55.2813 49.5676 55.779 49.615C56.2767 49.6624 56.2767 49.6626 56.2767 49.6627C56.2767 49.6628 56.2767 49.6629 56.2767 49.663C56.2767 49.6631 56.2767 49.6632 56.2767 49.6632C56.2767 49.6633 56.2767 49.6631 56.2767 49.6627C56.2768 49.6619 56.277 49.6601 56.2773 49.6576C56.2778 49.6524 56.2788 49.6438 56.2802 49.6319C56.2831 49.6081 56.2879 49.5714 56.2951 49.5235C56.3096 49.4276 56.3339 49.2875 56.3721 49.1173C56.449 48.7752 56.5805 48.3206 56.7979 47.8611C57.2346 46.9385 57.9759 46.0694 59.2668 45.9322L59.214 45.435ZM60.641 46.667L60.9677 46.2885L59.5407 45.0565L59.214 45.435L58.8873 45.8135L60.3143 47.0454L60.641 46.667ZM57.834 49.858L58.334 49.8573C58.3328 48.9559 58.8872 48.2889 59.532 47.8164C59.8492 47.5838 60.1697 47.4132 60.4124 47.3006C60.5331 47.2446 60.6327 47.2038 60.7008 47.1775C60.7348 47.1643 60.7607 47.1548 60.7773 47.1489C60.7856 47.146 60.7915 47.1439 60.795 47.1427C60.7967 47.1421 60.7978 47.1418 60.7982 47.1416C60.7984 47.1416 60.7985 47.1415 60.7983 47.1416C60.7983 47.1416 60.7982 47.1416 60.798 47.1417C60.798 47.1417 60.7978 47.1418 60.7978 47.1418C60.7976 47.1418 60.7975 47.1419 60.641 46.667C60.4845 46.1921 60.4843 46.1922 60.4841 46.1922C60.4841 46.1923 60.4839 46.1923 60.4837 46.1924C60.4834 46.1925 60.483 46.1926 60.4826 46.1927C60.4818 46.193 60.4809 46.1933 60.4797 46.1937C60.4775 46.1945 60.4745 46.1955 60.4709 46.1967C60.4637 46.1992 60.4539 46.2026 60.4416 46.207C60.417 46.2157 60.3826 46.2283 60.3397 46.2449C60.2541 46.2781 60.1343 46.3273 59.9915 46.3935C59.7074 46.5253 59.3256 46.7278 58.9408 47.0098C58.1813 47.5665 57.3322 48.4951 57.334 49.8586L57.834 49.858ZM55.779 49.615L55.7203 50.1115L57.7753 50.3545L57.834 49.858L57.8927 49.3614L55.8377 49.1184L55.779 49.615ZM154.198 49.709L154.34 50.1884C155.103 49.9623 155.903 49.8843 156.695 49.9588L156.742 49.461L156.789 48.9632C155.869 48.8768 154.942 48.9672 154.056 49.2296L154.198 49.709ZM154.198 49.714H154.698V49.709H154.198H153.698V49.714H154.198ZM156.742 49.958L156.694 49.4603C155.902 49.5366 155.103 49.46 154.34 49.2345L154.198 49.714L154.056 50.1935C154.942 50.4553 155.87 50.5443 156.79 50.4557L156.742 49.958ZM159.285 49.709L159.142 49.2298C158.38 49.4568 157.581 49.5351 156.789 49.4602L156.742 49.958L156.695 50.4558C157.615 50.5427 158.542 50.4519 159.428 50.1882L159.285 49.709ZM156.742 49.461L156.789 49.9588C157.581 49.8844 158.38 49.9623 159.143 50.1884L159.285 49.709L159.427 49.2296C158.542 48.9673 157.614 48.8768 156.695 48.9632L156.742 49.461ZM158.94 51.876L158.571 51.539C158.321 51.8122 158.108 52.0902 157.966 52.3245C157.897 52.4381 157.831 52.5637 157.792 52.6862C157.773 52.7459 157.751 52.8333 157.753 52.933C157.755 53.0325 157.783 53.2059 157.933 53.3439L158.272 52.976L158.611 52.608C158.736 52.7231 158.752 52.8609 158.753 52.9137C158.754 52.9667 158.743 52.9963 158.745 52.9887C158.749 52.9764 158.768 52.929 158.82 52.8433C158.92 52.6788 159.091 52.4527 159.309 52.213L158.94 51.876ZM159.977 51.108L160.312 50.7367C160.161 50.6006 159.986 50.5876 159.886 50.5948C159.787 50.602 159.701 50.6319 159.643 50.6564C159.525 50.7065 159.405 50.7841 159.298 50.8635C159.077 51.0271 158.82 51.266 158.571 51.539L158.94 51.876L159.309 52.213C159.528 51.973 159.738 51.7819 159.894 51.6668C159.974 51.6068 160.02 51.5828 160.032 51.5777C160.04 51.5746 160.011 51.5884 159.958 51.5922C159.905 51.596 159.767 51.5923 159.642 51.4793L159.977 51.108ZM159.307 52.208L159.676 52.5458C159.926 52.2727 160.141 51.9948 160.283 51.7603C160.353 51.6467 160.419 51.5206 160.458 51.3974C160.477 51.3373 160.499 51.249 160.497 51.1481C160.494 51.0465 160.463 50.8732 160.312 50.7367L159.977 51.108L159.642 51.4793C159.516 51.3658 159.498 51.2281 159.497 51.1732C159.496 51.119 159.507 51.0884 159.505 51.0957C159.501 51.1072 159.482 51.1542 159.43 51.2399C159.329 51.4042 159.158 51.6303 158.938 51.8702L159.307 52.208ZM158.318 52.991L158.519 53.4489C158.989 53.2426 159.398 52.9188 159.707 52.5086L159.307 52.208L158.907 51.9074C158.702 52.1804 158.43 52.3959 158.117 52.5331L158.318 52.991ZM158.272 52.981L157.994 53.3963C158.113 53.4761 158.258 53.5076 158.399 53.4844L158.318 52.991L158.237 52.4976C158.346 52.4797 158.458 52.504 158.55 52.5657L158.272 52.981ZM158.272 52.976H157.772V52.981H158.272H158.772V52.976H158.272ZM162.162 51.305L161.682 51.1649C161.42 52.0624 161.33 53.0012 161.416 53.9321L161.914 53.886L162.412 53.8399C162.337 53.0342 162.415 52.2217 162.642 51.445L162.162 51.305ZM162.409 53.886L162.907 53.932C162.993 53.0014 162.903 52.0628 162.642 51.1653L162.162 51.305L161.682 51.4446C161.908 52.2216 161.986 53.0342 161.911 53.8399L162.409 53.886ZM162.162 56.467L162.642 56.6066C162.903 55.7092 162.993 54.7706 162.907 53.8399L162.409 53.886L161.911 53.932C161.986 54.7378 161.908 55.5504 161.682 56.3273L162.162 56.467ZM161.914 53.887L161.416 53.841C161.33 54.7715 161.42 55.7099 161.682 56.607L162.162 56.467L162.642 56.327C162.416 55.5505 162.337 54.7384 162.412 53.933L161.914 53.887ZM161.914 53.886H161.414V53.887H161.914H162.414V53.886H161.914ZM1.294 54.5L1.6014 54.8943L4.1824 52.8823L3.875 52.488L3.5676 52.0936L0.986596 54.1057L1.294 54.5ZM7.084 60.448C7.17396 59.9561 7.17412 59.9562 7.17425 59.9562C7.17426 59.9562 7.17437 59.9562 7.17439 59.9562C7.17444 59.9562 7.17439 59.9562 7.17425 59.9562C7.17397 59.9561 7.17331 59.956 7.17228 59.9558C7.17021 59.9554 7.16667 59.9548 7.16169 59.9538C7.15173 59.9518 7.13605 59.9487 7.11505 59.9443C7.07303 59.9356 7.00978 59.9218 6.92848 59.9024C6.76576 59.8636 6.53153 59.8026 6.25116 59.7148C5.68821 59.5384 4.95042 59.2574 4.23476 58.8381C2.7986 57.9966 1.54739 56.6678 1.79071 54.5573L1.294 54.5L0.79729 54.4427C0.488613 57.1202 2.1324 58.7653 3.72924 59.7009C4.53008 60.1701 5.34329 60.4783 5.95221 60.6691C6.25779 60.7648 6.51471 60.8318 6.69666 60.8752C6.7877 60.8969 6.86016 60.9127 6.91077 60.9232C6.93608 60.9285 6.95595 60.9325 6.96996 60.9352C6.97696 60.9366 6.98251 60.9377 6.98654 60.9384C6.98855 60.9388 6.99019 60.9391 6.99144 60.9393C6.99207 60.9395 6.9926 60.9396 6.99303 60.9396C6.99325 60.9397 6.9935 60.9397 6.99361 60.9397C6.99384 60.9398 6.99404 60.9398 7.084 60.448ZM8.229 57.315L7.75938 57.1434L6.61438 60.2764L7.084 60.448L7.55362 60.6196L8.69862 57.4866L8.229 57.315ZM3.875 52.488C3.37871 52.5488 3.37874 52.549 3.37876 52.5492C3.37878 52.5493 3.37881 52.5496 3.37883 52.5498C3.37888 52.5502 3.37894 52.5507 3.37901 52.5512C3.37915 52.5523 3.37932 52.5537 3.37953 52.5553C3.37995 52.5585 3.38052 52.5629 3.38125 52.5682C3.38271 52.579 3.38482 52.5939 3.38766 52.6128C3.39332 52.6505 3.40191 52.7039 3.41411 52.7708C3.43849 52.9047 3.4774 53.0934 3.5364 53.3198C3.65397 53.7709 3.85359 54.3802 4.18274 55.0051C4.84181 56.2565 6.05285 57.6197 8.18385 57.8129L8.229 57.315L8.27415 56.817C6.60015 56.6652 5.63419 55.615 5.06752 54.5391C4.78378 54.0004 4.60835 53.4677 4.50407 53.0676C4.45215 52.8684 4.41844 52.7043 4.39793 52.5917C4.38769 52.5354 4.38077 52.4922 4.37653 52.464C4.37442 52.45 4.37298 52.4397 4.37213 52.4335C4.37171 52.4304 4.37143 52.4283 4.37129 52.4272C4.37123 52.4267 4.37119 52.4264 4.37119 52.4264C4.37119 52.4264 4.3712 52.4265 4.37122 52.4266C4.37123 52.4267 4.37124 52.4268 4.37125 52.4268C4.37127 52.427 4.37129 52.4272 3.875 52.488ZM182.511 69.248L182.045 69.0677L181.299 70.9977L181.765 71.178L182.231 71.3583L182.977 69.4283L182.511 69.248ZM185.711 73.612L186.206 73.6834C186.461 71.9149 185.52 70.6668 184.596 69.8999C184.132 69.5152 183.657 69.2368 183.3 69.055C183.121 68.9636 182.97 68.8956 182.862 68.8498C182.807 68.8269 182.764 68.8095 182.733 68.7975C182.718 68.7915 182.705 68.7869 182.697 68.7835C182.692 68.7819 182.689 68.7805 182.686 68.7795C182.684 68.779 182.683 68.7786 182.682 68.7783C182.682 68.7781 182.682 68.778 182.681 68.7778C182.681 68.7778 182.681 68.7777 182.681 68.7777C182.68 68.7776 182.68 68.7775 182.511 69.248C182.342 69.7185 182.342 69.7184 182.341 69.7183C182.341 69.7183 182.341 69.7183 182.341 69.7183C182.341 69.7182 182.341 69.7182 182.341 69.7182C182.341 69.7182 182.341 69.7182 182.341 69.7184C182.342 69.7186 182.344 69.7192 182.346 69.7201C182.351 69.722 182.359 69.725 182.37 69.7294C182.393 69.7381 182.427 69.7518 182.472 69.7707C182.561 69.8085 182.691 69.8666 182.846 69.9458C183.158 70.1051 183.566 70.3451 183.957 70.6696C184.743 71.3212 185.402 72.2551 185.216 73.5405L185.711 73.612ZM184.163 74.688L184.448 75.0985L185.996 74.0225L185.711 73.612L185.426 73.2014L183.878 74.2774L184.163 74.688ZM181.763 71.178L181.64 71.6626C182.514 71.8847 183.023 72.5873 183.322 73.3292C183.47 73.6942 183.556 74.0471 183.605 74.3101C183.63 74.4409 183.645 74.5476 183.654 74.6201C183.658 74.6563 183.661 74.6838 183.662 74.7013C183.663 74.7101 183.664 74.7164 183.664 74.72C183.664 74.7218 183.664 74.7229 183.664 74.7234C183.664 74.7236 183.664 74.7236 183.664 74.7235C183.664 74.7235 183.664 74.7233 183.664 74.7232C183.664 74.7231 183.664 74.723 183.664 74.7229C183.664 74.7228 183.664 74.7226 184.163 74.688C184.662 74.6534 184.662 74.6532 184.662 74.653C184.662 74.6529 184.662 74.6527 184.662 74.6525C184.662 74.6522 184.662 74.6518 184.662 74.6514C184.662 74.6506 184.662 74.6495 184.661 74.6483C184.661 74.6459 184.661 74.6428 184.661 74.639C184.66 74.6314 184.659 74.6211 184.658 74.6081C184.656 74.5821 184.652 74.5457 184.646 74.5C184.635 74.4089 184.617 74.2806 184.588 74.1259C184.53 73.818 184.428 73.398 184.25 72.9553C183.898 72.0817 183.207 71.0293 181.886 70.6934L181.763 71.178ZM181.765 71.178V70.678H181.763V71.178V71.678H181.765V71.178ZM143.218 87.678L143.717 87.6552L143.717 87.6538L143.218 87.6767L142.718 87.6995L142.719 87.7008L143.218 87.678ZM143.216 87.677L142.992 88.1242L142.994 88.1252L143.218 87.678L143.442 87.2308L143.44 87.2298L143.216 87.677ZM143.218 87.6767L143.133 87.184L143.131 87.1843L143.216 87.677L143.301 88.1696L143.303 88.1693L143.218 87.6767ZM143.062 84.636L142.563 84.6616L142.719 87.7023L143.218 87.6767L143.717 87.651L143.561 84.6104L143.062 84.636ZM149.982 88.586L150.463 88.4501C149.779 86.0275 147.856 84.9538 146.193 84.4888C145.36 84.2558 144.572 84.1684 143.995 84.1386C143.706 84.1237 143.467 84.1231 143.299 84.1264C143.215 84.128 143.148 84.1306 143.102 84.1329C143.079 84.134 143.06 84.1351 143.047 84.1359C143.041 84.1363 143.036 84.1366 143.032 84.1369C143.03 84.137 143.028 84.1371 143.027 84.1372C143.027 84.1372 143.026 84.1373 143.026 84.1373C143.026 84.1373 143.025 84.1373 143.025 84.1373C143.025 84.1374 143.025 84.1374 143.062 84.636C143.099 85.1346 143.099 85.1346 143.099 85.1346C143.099 85.1346 143.099 85.1346 143.099 85.1346C143.099 85.1346 143.099 85.1346 143.099 85.1346C143.099 85.1346 143.099 85.1346 143.1 85.1345C143.102 85.1344 143.105 85.1342 143.109 85.1339C143.118 85.1334 143.132 85.1326 143.15 85.1317C143.188 85.1299 143.245 85.1276 143.318 85.1262C143.466 85.1233 143.681 85.1237 143.944 85.1373C144.471 85.1645 145.182 85.2443 145.924 85.4519C147.412 85.8681 148.949 86.7695 149.501 88.7219L149.982 88.586ZM148.547 90.962L148.975 91.2205L150.41 88.8445L149.982 88.586L149.554 88.3275L148.119 90.7035L148.547 90.962ZM143.218 87.6767L143.303 88.1694C144.717 87.9256 145.896 88.6235 146.767 89.4663C147.197 89.8832 147.535 90.3195 147.765 90.6529C147.879 90.8191 147.966 90.9581 148.024 91.0542C148.052 91.1022 148.074 91.1394 148.087 91.1638C148.094 91.176 148.099 91.185 148.102 91.1905C148.104 91.1933 148.105 91.1952 148.105 91.1961C148.105 91.1966 148.106 91.1969 148.106 91.197C148.106 91.197 148.106 91.1969 148.106 91.1968C148.106 91.1968 148.106 91.1967 148.105 91.1967C148.105 91.1965 148.105 91.1964 148.547 90.962C148.989 90.7276 148.989 90.7274 148.988 90.7272C148.988 90.7271 148.988 90.7269 148.988 90.7268C148.988 90.7265 148.988 90.7261 148.988 90.7256C148.987 90.7247 148.987 90.7236 148.986 90.7223C148.984 90.7196 148.982 90.7159 148.98 90.7114C148.975 90.7024 148.968 90.6898 148.959 90.6739C148.941 90.6422 148.915 90.5972 148.882 90.541C148.815 90.4287 148.716 90.2713 148.588 90.0851C148.332 89.7141 147.953 89.2229 147.462 88.7477C146.489 87.8063 145.003 86.8616 143.133 87.1839L143.218 87.6767ZM22.618 96.848L23.1173 96.8224L22.9613 93.7814L22.462 93.807L21.9627 93.8326L22.1187 96.8736L22.618 96.848ZM27.945 100.134C28.3868 99.8999 28.3867 99.8997 28.3866 99.8995C28.3866 99.8995 28.3865 99.8992 28.3864 99.8991C28.3862 99.8988 28.386 99.8984 28.3858 99.8979C28.3853 99.897 28.3847 99.8959 28.384 99.8946C28.3825 99.8919 28.3806 99.8882 28.3781 99.8837C28.3732 99.8747 28.3662 99.8621 28.3573 99.8462C28.3395 99.8145 28.3137 99.7695 28.2802 99.7133C28.2131 99.601 28.1147 99.4435 27.9865 99.2573C27.7309 98.8862 27.3522 98.3949 26.8617 97.9196C25.8896 96.9779 24.404 96.033 22.5331 96.3552L22.618 96.848L22.7029 97.3407C24.118 97.097 25.2959 97.7951 26.1658 98.6379C26.5963 99.0548 26.9333 99.4911 27.163 99.8246C27.2774 99.9907 27.3642 100.13 27.4216 100.226C27.4503 100.274 27.4715 100.311 27.4852 100.336C27.4921 100.348 27.497 100.357 27.5 100.362C27.5015 100.365 27.5025 100.367 27.5031 100.368C27.5033 100.368 27.5035 100.369 27.5035 100.369C27.5035 100.369 27.5035 100.369 27.5034 100.369C27.5034 100.368 27.5033 100.368 27.5033 100.368C27.5033 100.368 27.5032 100.368 27.945 100.134ZM29.38 97.758L28.952 97.4995L27.517 99.8755L27.945 100.134L28.373 100.392L29.808 98.0165L29.38 97.758ZM22.462 93.807C22.4993 94.3056 22.4991 94.3056 22.499 94.3056C22.4989 94.3056 22.4988 94.3056 22.4988 94.3056C22.4987 94.3056 22.4987 94.3056 22.4988 94.3056C22.499 94.3056 22.4995 94.3056 22.5003 94.3055C22.502 94.3054 22.505 94.3052 22.5094 94.3049C22.518 94.3044 22.5318 94.3036 22.5505 94.3027C22.5879 94.3009 22.6446 94.2986 22.7184 94.2972C22.866 94.2943 23.0809 94.2947 23.3436 94.3083C23.8709 94.3355 24.5814 94.4153 25.3235 94.623C26.8116 95.0393 28.3481 95.9408 28.8988 97.8937L29.38 97.758L29.8612 97.6223C29.1779 95.1991 27.2554 94.1251 25.593 93.66C24.7599 93.4269 23.9723 93.3394 23.3952 93.3096C23.1058 93.2947 22.867 93.2941 22.6989 93.2974C22.6148 93.299 22.5483 93.3016 22.5018 93.3039C22.4785 93.305 22.4603 93.3061 22.4473 93.3069C22.4409 93.3073 22.4357 93.3076 22.4319 93.3079C22.43 93.308 22.4285 93.3081 22.4273 93.3082C22.4267 93.3082 22.4262 93.3083 22.4257 93.3083C22.4255 93.3083 22.4253 93.3083 22.4252 93.3084C22.4249 93.3084 22.4247 93.3084 22.462 93.807ZM165.179 52.576L165.563 52.2559C165.326 51.971 165.139 51.7061 165.028 51.5132C164.971 51.4133 164.946 51.3535 164.939 51.3308C164.934 51.3171 164.945 51.3429 164.944 51.3929C164.944 51.4377 164.932 51.5945 164.785 51.7175L164.464 51.334L164.143 50.9505C163.97 51.0952 163.945 51.2884 163.944 51.3826C163.943 51.4819 163.966 51.57 163.984 51.63C164.024 51.7546 164.09 51.8873 164.162 52.012C164.309 52.2684 164.532 52.581 164.795 52.8961L165.179 52.576ZM165.179 52.577H165.679V52.576H165.179H164.679V52.577H165.179ZM166.24 53.512V53.012C166.313 53.012 166.357 53.0318 166.357 53.0318C166.363 53.0342 166.357 53.032 166.336 53.019C166.294 52.993 166.231 52.9455 166.147 52.8725C165.983 52.7279 165.776 52.5146 165.565 52.2587L165.179 52.577L164.793 52.8953C165.031 53.1834 165.275 53.4375 165.488 53.6245C165.594 53.7172 165.702 53.8015 165.804 53.8658C165.855 53.8979 165.914 53.9305 165.977 53.9565C166.034 53.98 166.127 54.012 166.24 54.012V53.512ZM166.278 53.5L165.97 53.106C166.054 53.0403 166.159 53.0072 166.266 53.0126L166.24 53.512L166.214 54.0113C166.348 54.0182 166.48 53.9766 166.586 53.894L166.278 53.5ZM165.564 52.258L165.18 52.5787C165.418 52.8623 165.604 53.1267 165.714 53.3193C165.772 53.4192 165.797 53.4788 165.804 53.5013C165.808 53.5147 165.797 53.4889 165.798 53.4388C165.799 53.3933 165.812 53.2385 165.957 53.1168L166.278 53.5L166.599 53.8832C166.771 53.7394 166.797 53.548 166.798 53.4529C166.799 53.3533 166.777 53.2649 166.759 53.2045C166.72 53.0793 166.653 52.946 166.581 52.8212C166.434 52.5643 166.21 52.2516 165.948 51.9373L165.564 52.258ZM164.464 51.334L164.785 51.7175C164.637 51.8411 164.48 51.8244 164.437 51.8172C164.389 51.809 164.366 51.7945 164.379 51.8012C164.401 51.8125 164.456 51.8481 164.544 51.9224C164.716 52.0657 164.944 52.2957 165.18 52.5787L165.564 52.258L165.948 51.9373C165.684 51.6222 165.415 51.3468 165.187 51.1558C165.076 51.063 164.956 50.9742 164.84 50.9139C164.784 50.8848 164.701 50.8476 164.604 50.8312C164.512 50.8157 164.317 50.8052 164.143 50.9505L164.464 51.334ZM164.864 49.543L165.006 50.0224C165.769 49.7965 166.567 49.7185 167.359 49.7928L167.406 49.295L167.453 48.7972C166.534 48.711 165.607 48.8014 164.722 49.0636L164.864 49.543ZM164.864 49.549H165.364V49.543H164.864H164.364V49.549H164.864ZM167.406 49.791L167.358 49.2933C166.567 49.3692 165.768 49.2932 165.005 49.0692L164.864 49.549L164.723 50.0287C165.609 50.2886 166.535 50.3768 167.454 50.2887L167.406 49.791ZM169.951 49.543L169.809 49.0635C169.045 49.2895 168.246 49.3675 167.453 49.2932L167.406 49.791L167.359 50.2888C168.279 50.375 169.207 50.2846 170.093 50.0224L169.951 49.543ZM167.406 49.295L167.453 49.7928C168.246 49.7183 169.045 49.7963 169.809 50.0224L169.951 49.543L170.093 49.0636C169.207 48.8012 168.279 48.7108 167.359 48.7972L167.406 49.295ZM159.152 47.094L159.471 46.7089C159.243 46.5199 159.064 46.3372 158.959 46.2029C158.933 46.1703 158.914 46.1435 158.901 46.1226C158.887 46.1009 158.882 46.0912 158.883 46.0926C158.884 46.0937 158.887 46.1008 158.89 46.1132C158.893 46.1251 158.899 46.1473 158.901 46.1777C158.905 46.2364 158.898 46.3636 158.798 46.482L158.416 46.159L158.034 45.836C157.912 45.9804 157.896 46.1435 157.903 46.2467C157.91 46.3472 157.94 46.4322 157.965 46.49C158.016 46.6075 158.094 46.7215 158.172 46.8206C158.333 47.0252 158.566 47.2581 158.833 47.4791L159.152 47.094ZM159.153 47.1L159.646 47.0184L159.645 47.0124L159.152 47.094L158.659 47.1756L158.66 47.1816L159.153 47.1ZM160.137 47.67L160.277 47.1901C159.986 47.1047 159.719 46.9501 159.499 46.7395L159.153 47.1L158.807 47.4605C159.142 47.7828 159.55 48.0193 159.997 48.1499L160.137 47.67ZM160.205 47.647L159.864 47.2817C159.951 47.2005 160.068 47.1607 160.186 47.1724L160.137 47.67L160.088 48.1675C160.256 48.1842 160.423 48.1277 160.546 48.0123L160.205 47.647ZM159.468 46.712L159.147 47.0953C159.376 47.2867 159.555 47.4695 159.662 47.6041C159.687 47.6367 159.707 47.6636 159.72 47.6845C159.734 47.7063 159.739 47.7161 159.738 47.7148C159.738 47.7138 159.734 47.7068 159.731 47.6946C159.728 47.6829 159.722 47.661 159.72 47.6311C159.716 47.573 159.722 47.449 159.817 47.3315L160.205 47.647L160.593 47.9624C160.71 47.8183 160.725 47.6578 160.717 47.5549C160.709 47.4549 160.679 47.3704 160.653 47.3125C160.602 47.1954 160.524 47.0819 160.446 46.9836C160.285 46.7804 160.053 46.5493 159.789 46.3286L159.468 46.712ZM158.416 46.159L158.798 46.482C158.699 46.5984 158.578 46.6268 158.521 46.633C158.491 46.6362 158.469 46.635 158.457 46.6339C158.445 46.6328 158.437 46.6311 158.436 46.6309C158.435 46.6306 158.446 46.633 158.469 46.6428C158.492 46.6521 158.522 46.6658 158.559 46.6849C158.709 46.7638 158.92 46.9056 159.147 47.0953L159.468 46.712L159.789 46.3286C159.524 46.1063 159.253 45.9196 159.022 45.799C158.911 45.7406 158.785 45.6849 158.66 45.6563C158.599 45.6422 158.511 45.6281 158.412 45.639C158.31 45.6501 158.155 45.6935 158.034 45.836L158.416 46.159ZM164.916 46.419L164.561 46.0668C164.288 46.3425 164.05 46.6218 163.889 46.857C163.811 46.9711 163.736 47.0968 163.689 47.2195C163.666 47.2792 163.639 47.367 163.635 47.4684C163.631 47.5699 163.651 47.7484 163.798 47.8955L164.152 47.542L164.506 47.1884C164.628 47.3105 164.636 47.4515 164.634 47.5045C164.633 47.5574 164.62 47.5856 164.623 47.5762C164.629 47.5607 164.654 47.51 164.715 47.4212C164.831 47.2507 165.025 47.0185 165.271 46.7712L164.916 46.419ZM166.03 45.648L166.384 45.2944C166.233 45.144 166.05 45.1276 165.951 45.1324C165.851 45.1373 165.764 45.1655 165.705 45.1886C165.584 45.2361 165.46 45.3114 165.347 45.3899C165.113 45.5516 164.835 45.7905 164.561 46.0668L164.916 46.419L165.271 46.7712C165.516 46.5245 165.746 46.3293 165.916 46.2121C166.004 46.1511 166.055 46.1256 166.071 46.1194C166.081 46.1156 166.053 46.1286 166 46.1312C165.949 46.1337 165.803 46.1277 165.676 46.0015L166.03 45.648ZM165.269 46.769L165.624 47.1215C165.898 46.8457 166.134 46.5657 166.294 46.3301C166.372 46.2157 166.446 46.0906 166.492 45.9692C166.514 45.9102 166.542 45.8237 166.546 45.7239C166.55 45.626 166.533 45.4442 166.384 45.2944L166.03 45.648L165.676 46.0015C165.551 45.876 165.545 45.7312 165.547 45.6813C165.549 45.6296 165.562 45.6024 165.558 45.6124C165.551 45.6288 165.526 45.6803 165.466 45.7689C165.351 45.9393 165.158 46.1713 164.914 46.4165L165.269 46.769ZM164.2 47.558L164.392 48.0195C164.882 47.8156 165.314 47.4963 165.653 47.0888L165.269 46.769L164.885 46.4492C164.649 46.7326 164.348 46.9547 164.008 47.0964L164.2 47.558ZM164.158 47.548L163.887 47.9683C163.995 48.0381 164.124 48.0687 164.252 48.0552L164.2 47.558L164.148 47.0607C164.246 47.0504 164.345 47.074 164.429 47.1277L164.158 47.548ZM164.152 47.542L163.798 47.8954L163.804 47.9014L164.158 47.548L164.512 47.1945L164.506 47.1885L164.152 47.542ZM25.915 37.153L25.5924 36.771C25.42 36.9166 25.3964 37.1099 25.3957 37.203C25.3949 37.3018 25.4171 37.3894 25.4359 37.4493C25.475 37.5735 25.5412 37.7061 25.6129 37.8308C25.7603 38.0872 25.9832 38.3998 26.2459 38.7151L26.63 38.395L27.0141 38.0749C26.7768 37.7901 26.5907 37.5253 26.4799 37.3324C26.4224 37.2325 26.3972 37.1725 26.39 37.1495C26.3856 37.1357 26.396 37.161 26.3956 37.2105C26.3953 37.2542 26.3843 37.4111 26.2376 37.535L25.915 37.153ZM27.015 38.077L27.397 37.7544C27.132 37.4405 26.8626 37.1657 26.6358 36.9752C26.5255 36.8826 26.4065 36.7939 26.291 36.7335C26.2355 36.7044 26.1529 36.6669 26.055 36.6503C25.9627 36.6346 25.7664 36.624 25.5924 36.771L25.915 37.153L26.2376 37.535C26.0894 37.6602 25.9309 37.6435 25.8872 37.6361C25.838 37.6277 25.8146 37.6129 25.8276 37.6196C25.8491 37.6309 25.904 37.6665 25.9927 37.741C26.1639 37.8848 26.393 38.1154 26.633 38.3996L27.015 38.077ZM27.727 39.319L28.0482 39.7022C28.2181 39.5598 28.2451 39.3705 28.2472 39.2756C28.2493 39.1761 28.228 39.0877 28.2096 39.0269C28.1714 38.901 28.1057 38.7673 28.0342 38.6418C27.8872 38.3837 27.6635 38.07 27.397 37.7544L27.015 38.077L26.633 38.3996C26.8715 38.682 27.0563 38.9453 27.1653 39.1367C27.2218 39.2359 27.2459 39.295 27.2525 39.3169C27.2565 39.3299 27.2463 39.3041 27.2474 39.2542C27.2483 39.2089 27.2622 39.0562 27.4058 38.9358L27.727 39.319ZM27.691 39.331L27.6652 39.8303C27.804 39.8375 27.9405 39.792 28.0473 39.7029L27.727 39.319L27.4067 38.9351C27.4934 38.8627 27.6042 38.8258 27.7168 38.8317L27.691 39.331ZM26.636 38.4L26.2518 38.72C26.491 39.0071 26.734 39.261 26.9455 39.4473C27.0502 39.5395 27.157 39.6239 27.2589 39.688C27.3097 39.7199 27.369 39.753 27.4334 39.7789C27.4912 39.8022 27.5905 39.8353 27.7105 39.8306L27.691 39.331L27.6715 38.8314C27.753 38.8282 27.8047 38.8504 27.8068 38.8512C27.8155 38.8547 27.811 38.8539 27.7912 38.8414C27.7517 38.8166 27.6895 38.7701 27.6065 38.6969C27.4425 38.5524 27.235 38.3379 27.0202 38.08L26.636 38.4ZM26.63 38.395L26.3099 38.7791L26.3159 38.7841L26.636 38.4L26.9561 38.0159L26.9501 38.0109L26.63 38.395ZM142.447 37.145L142.831 36.8246L141.624 35.3786L141.24 35.699L140.856 36.0194L142.063 37.4654L142.447 37.145ZM142.453 37.152L142.833 36.8267L142.827 36.8197L142.447 37.145L142.067 37.4703L142.073 37.4773L142.453 37.152ZM142.656 37.151L142.62 36.6523C142.579 36.6553 142.532 36.6557 142.481 36.6528L142.453 37.152L142.425 37.6512C142.515 37.6563 142.604 37.656 142.692 37.6497L142.656 37.151ZM146.513 33.579C146.029 33.4519 146.029 33.4517 146.03 33.4515C146.03 33.4515 146.03 33.4514 146.03 33.4513C146.03 33.4512 146.03 33.4511 146.03 33.4511C146.03 33.451 146.03 33.4512 146.03 33.4515C146.029 33.4523 146.029 33.4538 146.028 33.4562C146.027 33.4609 146.025 33.4689 146.022 33.4798C146.015 33.5017 146.005 33.5355 145.991 33.5796C145.963 33.6678 145.918 33.7964 145.856 33.9518C145.732 34.2642 145.538 34.6771 145.264 35.0863C144.71 35.9108 143.879 36.651 142.656 36.651V37.151V37.651C144.351 37.651 145.448 36.6051 146.094 35.6437C146.419 35.1599 146.642 34.6797 146.785 34.3224C146.857 34.143 146.909 33.9925 146.943 33.8854C146.96 33.8318 146.973 33.7889 146.982 33.7584C146.986 33.7432 146.99 33.7311 146.992 33.7223C146.993 33.7179 146.994 33.7143 146.995 33.7116C146.995 33.7103 146.996 33.7091 146.996 33.7082C146.996 33.7078 146.996 33.7073 146.996 33.707C146.996 33.7068 146.996 33.7066 146.996 33.7065C146.997 33.7063 146.997 33.7061 146.513 33.579ZM144.527 33.005L144.388 33.4853L146.374 34.0593L146.513 33.579L146.652 33.0986L144.666 32.5246L144.527 33.005ZM141.24 35.699C141.318 36.1929 141.318 36.1929 141.318 36.1929C141.318 36.1929 141.318 36.1928 141.318 36.1928C141.319 36.1927 141.319 36.1927 141.32 36.1926C141.32 36.1925 141.321 36.1923 141.323 36.1921C141.325 36.1918 141.328 36.1912 141.332 36.1906C141.339 36.1893 141.35 36.1876 141.362 36.1852C141.388 36.1806 141.424 36.1737 141.469 36.1642C141.559 36.1454 141.685 36.1162 141.837 36.074C142.138 35.9899 142.548 35.852 142.973 35.6359C143.813 35.2096 144.801 34.4309 145.021 33.0854L144.527 33.005L144.034 32.9246C143.889 33.8141 143.233 34.3824 142.521 34.7443C142.17 34.9224 141.826 35.0389 141.568 35.1107C141.44 35.1464 141.335 35.1706 141.264 35.1855C141.228 35.193 141.201 35.1982 141.184 35.2013C141.175 35.2029 141.169 35.204 141.165 35.2046C141.163 35.2049 141.162 35.2051 141.162 35.2052C141.161 35.2052 141.161 35.2052 141.162 35.2052C141.162 35.2052 141.162 35.2052 141.162 35.2051C141.162 35.2051 141.162 35.2051 141.162 35.2051C141.162 35.2051 141.162 35.205 141.24 35.699ZM18.191 35.283L18.2377 34.7852C17.3182 34.6989 16.3906 34.7893 15.505 35.0516L15.647 35.531L15.789 36.0104C16.5523 35.7843 17.3517 35.7064 18.1443 35.7808L18.191 35.283ZM20.734 35.531L20.876 35.0516C19.9907 34.7894 19.0635 34.699 18.1443 34.7852L18.191 35.283L18.2377 35.7808C19.0299 35.7065 19.8291 35.7845 20.592 36.0104L20.734 35.531ZM18.191 35.78L18.1441 36.2778C19.0636 36.3644 19.9913 36.2736 20.8766 36.0102L20.734 35.531L20.5914 35.0517C19.8289 35.2786 19.0299 35.3568 18.2379 35.2822L18.191 35.78ZM15.654 35.539L15.513 36.0187C16.3968 36.2784 17.3222 36.3663 18.2391 36.2777L18.191 35.78L18.1429 35.2823C17.3532 35.3587 16.5562 35.2829 15.795 35.0593L15.654 35.539ZM15.647 35.531L15.2707 35.8603L15.2777 35.8683L15.654 35.539L16.0303 35.2097L16.0233 35.2017L15.647 35.531ZM26.314 35.365L26.456 35.8444C27.2189 35.6184 28.0181 35.5405 28.8103 35.6148L28.857 35.117L28.9037 34.6192C27.9845 34.5329 27.0572 34.6234 26.172 34.8856L26.314 35.365ZM26.321 35.373L26.6973 35.0437L26.6903 35.0357L26.314 35.365L25.9377 35.6943L25.9447 35.7023L26.321 35.373ZM28.857 35.613L28.8092 35.1153C28.0196 35.191 27.2227 35.1156 26.4613 34.8931L26.321 35.373L26.1807 35.8529C27.0641 36.1111 27.9886 36.1986 28.9047 36.1107L28.857 35.613ZM31.401 35.365L31.2591 34.8855C30.4957 35.1115 29.6962 35.1894 28.9036 35.1152L28.857 35.613L28.8104 36.1108C29.7299 36.197 30.6574 36.1065 31.5429 35.8444L31.401 35.365ZM28.857 35.117L28.9037 35.6148C29.6963 35.5404 30.4957 35.6183 31.259 35.8444L31.401 35.365L31.543 34.8856C30.6574 34.6233 29.7298 34.5329 28.8103 34.6192L28.857 35.117ZM20.6 32.916L20.9201 32.5319C20.6925 32.3422 20.5138 32.1597 20.4084 32.0255C20.3828 31.993 20.3639 31.9663 20.3507 31.9457C20.3369 31.9241 20.3329 31.9148 20.3337 31.9166C20.3343 31.9179 20.3374 31.9253 20.3409 31.938C20.3443 31.9503 20.3496 31.9729 20.3515 32.0036C20.3553 32.064 20.3464 32.1889 20.2481 32.3046L19.867 31.981L19.4859 31.6574C19.3651 31.7996 19.3469 31.9607 19.3534 32.0659C19.3598 32.1674 19.3899 32.2533 19.4151 32.3117C19.466 32.4301 19.5445 32.5446 19.6221 32.6434C19.7827 32.8478 20.0155 33.0798 20.2799 33.3001L20.6 32.916ZM20.608 32.924L20.9616 32.5704L20.9536 32.5624L20.6 32.916L20.2464 33.2695L20.2544 33.2775L20.608 32.924ZM21.586 33.492L21.7285 33.0127C21.4381 32.9264 21.1725 32.7722 20.9537 32.5627L20.608 32.924L20.2623 33.2852C20.5959 33.6045 21.0009 33.8397 21.4435 33.9713L21.586 33.492ZM21.653 33.469L21.3023 33.1126C21.3925 33.0238 21.5181 32.9807 21.6438 32.9953L21.586 33.492L21.5282 33.9886C21.7032 34.009 21.8781 33.949 22.0037 33.8254L21.653 33.469ZM20.918 32.534L20.5975 32.9178C20.825 33.1077 21.004 33.2903 21.11 33.4247C21.1357 33.4573 21.1548 33.4842 21.1682 33.505C21.1823 33.5268 21.1865 33.5365 21.1859 33.5351C21.1855 33.534 21.1824 33.527 21.1789 33.5147C21.1756 33.5028 21.1703 33.4808 21.1681 33.4508C21.1639 33.3923 21.1707 33.2682 21.2668 33.1514L21.653 33.469L22.0392 33.7866C22.1573 33.643 22.173 33.4825 22.1655 33.3791C22.1583 33.2787 22.128 33.1938 22.1027 33.1357C22.0514 33.018 21.973 32.9041 21.8952 32.8055C21.7345 32.6017 21.502 32.3702 21.2385 32.1502L20.918 32.534ZM19.867 31.981L20.2481 32.3046C20.1514 32.4186 20.0321 32.4478 19.974 32.4543C19.9442 32.4577 19.9217 32.4565 19.9094 32.4554C19.8966 32.4542 19.8891 32.4525 19.8878 32.4522C19.8862 32.4519 19.8963 32.4542 19.9201 32.4639C19.9428 32.4732 19.9724 32.487 20.0089 32.5063C20.1595 32.5857 20.3705 32.7282 20.5975 32.9178L20.918 32.534L21.2385 32.1502C20.9745 31.9298 20.705 31.7428 20.4753 31.6217C20.3642 31.5631 20.2378 31.5067 20.1125 31.4778C20.0505 31.4635 19.9616 31.4494 19.8617 31.4607C19.7587 31.4723 19.6051 31.5169 19.4859 31.6574L19.867 31.981ZM26.37 32.241L26.0151 31.8888C25.7414 32.1646 25.5039 32.444 25.3433 32.6794C25.2654 32.7936 25.1905 32.9193 25.1437 33.0421C25.121 33.1018 25.0936 33.1896 25.0901 33.291C25.0865 33.3925 25.1066 33.5707 25.2534 33.7175L25.607 33.364L25.9606 33.0104C26.0824 33.1323 26.0913 33.273 26.0895 33.326C26.0876 33.3788 26.0748 33.407 26.0784 33.3977C26.0842 33.3823 26.1089 33.3315 26.1694 33.2429C26.2856 33.0725 26.4796 32.8404 26.7249 32.5932L26.37 32.241ZM27.485 31.47L27.8367 31.1146C27.6865 30.966 27.505 30.9496 27.4059 30.9544C27.3055 30.9593 27.2188 30.9874 27.16 31.0105C27.0388 31.058 26.9144 31.1333 26.8009 31.2118C26.5671 31.3736 26.2893 31.6125 26.0151 31.8888L26.37 32.241L26.7249 32.5932C26.9697 32.3465 27.2004 32.1514 27.3699 32.0342C27.458 31.9732 27.5089 31.9478 27.5249 31.9415C27.5346 31.9377 27.5069 31.9507 27.4546 31.9532C27.4035 31.9557 27.259 31.9498 27.1333 31.8254L27.485 31.47ZM26.723 32.591L27.0779 32.9432C27.3512 32.6678 27.5879 32.3881 27.748 32.1528C27.8257 32.0386 27.9001 31.9135 27.9468 31.7919C27.9694 31.7329 27.9969 31.646 28.0012 31.5456C28.0053 31.4465 27.9878 31.2641 27.8367 31.1146L27.485 31.47L27.1333 31.8253C27.0067 31.7001 26.9999 31.5546 27.002 31.5037C27.0042 31.4514 27.017 31.4237 27.0132 31.4337C27.0069 31.45 26.9817 31.5014 26.9212 31.5902C26.8051 31.7609 26.6118 31.9932 26.3681 32.2388L26.723 32.591ZM25.654 33.38L25.847 33.8412C26.3355 33.6368 26.7676 33.3179 27.1069 32.9113L26.723 32.591L26.3391 32.2706C26.1026 32.554 25.8015 32.7763 25.461 32.9187L25.654 33.38ZM25.614 33.372L25.3671 33.8067C25.4725 33.8666 25.5944 33.891 25.7147 33.8763L25.654 33.38L25.5933 32.8837C25.6859 32.8724 25.7798 32.8911 25.8609 32.9372L25.614 33.372ZM25.607 33.364L25.2307 33.6933L25.2377 33.7013L25.614 33.372L25.9903 33.0427L25.9833 33.0347L25.607 33.364Z" fill="black" fill-opacity="0.01"/>
<path d="M52 103.636C52 92.5933 56.3868 82.0028 64.1953 74.1945C72.0037 66.3863 82.5943 61.9997 93.637 62C104.68 61.9997 115.27 66.3863 123.079 74.1945C130.887 82.0028 135.274 92.5933 135.274 103.636C135.274 126.631 116.632 145.273 93.637 145.273C70.6415 145.273 52 126.631 52 103.636H52Z" fill="#1DBF73"/>
<path d="M112.182 87.792C112.715 88.225 104.936 98.686 94.8107 111.154C92.6527 113.773 90.5817 116.284 88.6787 118.594L87.8407 119.612L86.9407 118.683C79.0347 110.537 73.6407 104.483 74.0187 104.104C74.3967 103.725 80.4497 109.12 88.5977 117.026L86.8607 117.117C88.7297 114.779 90.7607 112.239 92.8817 109.588C103.007 97.119 111.649 87.361 112.182 87.792Z" fill="white"/>
</svg>
